<?xml version="1.0" encoding="utf-8"?>
<!-- Generator: Adobe Illustrator 26.4.1, SVG Export Plug-In . SVG Version: 6.00 Build 0)  -->
<svg version="1.1" id="Capa_1" xmlns="http://www.w3.org/2000/svg" xmlns:xlink="http://www.w3.org/1999/xlink" x="0px" y="0px"
	 viewBox="0 0 50 50" style="enable-background:new 0 0 50 50;" xml:space="preserve">
<style type="text/css">
	.st0{fill:#FEFEFE;}
	.st1{fill:#B5CCBA;}
	.st2{fill:#F698B0;}
	.st3{fill:#C4CEC2;}
	.st4{fill:#FFFFFF;}
	.st5{fill:none;}
	.st6{fill:none;stroke:#F3F5F2;stroke-miterlimit:10;}
</style>
<g>
	<g>
		<path class="st0" d="M20.5,32.2c0.2-0.2,0.4-0.1,0.6-0.1C21,32.2,20.7,32.1,20.5,32.2z"/>
		<path class="st0" d="M22.4,30.1C22.5,30.2,22.5,30.2,22.4,30.1C22.5,30.2,22.5,30.2,22.4,30.1z"/>
	</g>
	<g>
		<path class="st1" d="M24.6,3.5c-2.8-1.9-8.6-1.4-9.7,2c-1.1,3.7,3,6.1,1.4,10.2c-2.5,6.3,6.3,9.2,12.3,10.8
			c-5.1,1.2-13.2-0.2-15.5,4.2c-2.3,4.7-0.4,11.1,4.5,14.3c4,2.6,8.5,0.7,10.5-0.8c3.8-2.8,4-10.5,3.8-11.9
			C31.8,25,33.8,8.9,24.6,3.5z M30.9,33.7c-0.4,7.6-2.3,11.1-7.6,12c-1.3,0.2-3.1,0.5-4.6-0.9c-6-5.3-9.2-15.9,2.6-16.5
			c1.2-0.1,6.4-0.6,8.2-1.2c0.3-0.1,0.4-0.3,0.4-0.4c-0.1-0.5-0.4-1-1.2-1.1c-0.8-0.2-1.7-0.4-2.6-0.6c-4-1.3-11.1-3.1-8.8-10.1
			c1-3.3-2.8-6.1-1.7-9.3c1.7-3.1,5.6-3.5,8.2-1.6C30.1,8.4,32,12.6,30.9,33.7z"/>
		<path class="st2" d="M32.7,36.6c2,11.8-13.5,15.1-18.1,2.7c-4.9-13.4,9.1-9.4,15.1-12.5c-6.5-0.6-16.5-1.6-15.1-11.1
			c0.2-1.4-0.5-2.5-1.4-3.5C5.1,2.8,29-2.9,31.6,25.9c0.1,0.2,0.8-1,0.9-0.8c0.6,0.5,1-1.4,1.8-0.6c0.3,0.2-0.2,0.3-0.3,0.6
			c-0.5,1.1,0.3,1.2-0.7,1.8C31.1,28.7,32.6,34.1,32.7,36.6z M31.8,28.2c0-0.1,0-0.1,0-0.2c0.3-0.1,0.1-0.5,0-0.6
			c0-0.1,0-0.2-0.2-0.2c-0.6-1.3-1.8,0.7-3.9,1.1c-7.7,1.3-16.5,2.4-12,11.1c0.8,1.5,1.9,4.4,4.8,6.4c3.8,2.6,11.8-1.1,11.3-6.5
			C31.7,35.6,31,32.2,31.8,28.2z M16,21.2c2,3.2,13.8,6.6,14.9,4.7c-0.6-6.5-3-16.6-9.3-20.2c-3.1-2-9.9-1.1-9.1,3.3
			c0.1,1,0.7,1.9,1.4,2.6C17,14,14.3,18.3,16,21.2z"/>
		<path class="st3" d="M31.6,27.1c-0.3,0-0.4-0.4-0.7-0.3C31.2,26.6,31.3,26.7,31.6,27.1z"/>
		<path class="st3" d="M31.8,27.4c-0.1,0-0.2-0.1-0.2-0.2C31.7,27.2,31.8,27.3,31.8,27.4z"/>
		<path class="st3" d="M31.8,28.1c0-0.1,0-0.2,0.1-0.2C31.9,28,31.9,28,31.8,28.1z"/>
	</g>
	<path class="st2" d="M34.5,24.3c-0.4-0.5-1-0.5-1.5,0c-0.2,0.2-0.5,0.5-0.7,0.8c-0.2-0.5-0.7-0.9-1.2-0.9c-0.6,0-1,0.5-1,1.2
		c0,0.3,0.1,0.7,0.3,1l0,0c0,0,1.2,1.9,1.6,2c0.3,0.1,1.4-0.9,2.1-1.8C34.7,25.7,34.8,24.8,34.5,24.3z"/>
	<g>
		<path class="st4" d="M2.4,32.5c-0.4-0.7-0.8-2.2-0.6-2.2c-0.1,0-0.1,0-0.2-0.1c0-0.1-0.1-0.2-0.1-0.3c-0.1-0.1-0.1-0.3-0.2-0.6
			c0.1,0-0.1-0.9-0.2-1.6c0,0.5,0.1,1.2,0.4,2.6c0.1,0.1,0.1,0.3,0.2,0.5s0.1,0.4,0.2,0.6C2,31.6,2,31.8,2.1,32.1
			c0.1,0.2,0.1,0.5,0.2,0.7c0,0.1,0.1,0.2,0.1,0.3s0.1,0.2,0.1,0.3c0.1,0.2,0.2,0.4,0.3,0.6c0.2,0.4,0.4,0.8,0.5,1
			C3,34.3,2.8,33.5,2.4,32.5z"/>
		<path class="st4" d="M1.8,26.8l-0.1-0.2c0,0.2,0,0.4,0.1,0.5l0.1,0.5L2,28.1c0,0.2,0.1,0.4,0.1,0.5c0-0.1-0.1-0.3-0.1-0.5
			s-0.1-0.4-0.1-0.6S1.8,27.1,1.8,26.8C1.8,26.9,1.8,26.8,1.8,26.8z"/>
		<path class="st3" d="M2,19.8C2,20,2.4,18.9,2.4,19c-0.2,0,0.4-1.7,0.7-2.6V16C3,16.1,3,16.2,2.9,16.4c-0.1,0.1-0.1,0.3-0.2,0.5
			c-0.1,0.2-0.1,0.4-0.2,0.6c-0.1,0.2-0.1,0.4-0.2,0.7c-0.3,0.9-0.5,2-0.6,3C1.8,20.7,1.9,20.2,2,19.8z"/>
		<path class="st4" d="M2.6,18.1c0-0.2,0-0.4,0.1-0.6C2.5,18,2.2,19.2,2.6,18.1z"/>
		<path class="st4" d="M1.7,19.3c-0.4,1.5,0.3-0.9,0,0.6C1.8,19.4,1.9,18.8,1.7,19.3z"/>
		<path class="st3" d="M4.3,13.3c-0.5,1-0.9,2-1.3,3l0.3-0.6l0.1-0.3l0.2-0.3c0.1-0.3,0.2-0.6,0.3-0.9L4.3,13.3z"/>
		<path class="st3" d="M4.7,13.3c-0.2,0.4-0.6,1-0.3,0.4c0.2-0.3,0.3-0.5,0.4-0.7s0.2-0.4,0.3-0.6c0.1-0.2,0.2-0.4,0.4-0.6
			c0.1-0.1,0.1-0.2,0.2-0.3s0.2-0.2,0.2-0.3c-0.2,0.3-0.4,0.6-0.5,0.9c0.1,0,0.3-0.5,0.6-0.9c0.1-0.2,0.3-0.4,0.4-0.6
			c0.2-0.2,0.2-0.3,0.3-0.3C7.4,9.1,5.9,11,6.9,9.5c-0.3,0.4-0.5,0.7-0.7,1s-0.4,0.6-0.6,0.9C5.4,11.7,5.2,12,5,12.3
			c-0.2,0.3-0.4,0.6-0.6,0.9c0.3-0.3,0.3-0.5,0.7-1c-0.5,0.9-1.1,2.2-1.6,3.3c0.2-0.3,0.4-0.6,0.5-1c0.1-0.2,0.2-0.4,0.3-0.6
			C4.4,13.7,4.5,13.5,4.7,13.3z"/>
		<path class="st3" d="M7.7,9c0.7-0.8,2-2,2.1-2.3C9.3,7.1,9.1,7.3,8.9,7.5C8.7,7.7,8.6,7.9,8.5,8.1C8.3,8.2,8.1,8.5,7.9,8.6
			C7.7,8.8,7.6,8.9,7.7,8.7C7.8,8.6,7.3,9.4,7.7,9z"/>
		<path class="st3" d="M10.9,6.1c0.2-0.2,0.4-0.4,0.6-0.6c-0.1,0.1-0.3,0.2-0.4,0.3H11c0,0-0.1,0.2-0.3,0.3
			c-0.1,0.1-0.2,0.2-0.3,0.3c-0.1,0.1-0.3,0.3-0.5,0.5c0.2-0.2,0.4-0.3,0.5-0.4C10.5,6.4,10.6,6.2,10.9,6.1z"/>
		<path class="st3" d="M10.6,5.3C10.8,5.2,10.9,5.1,11,5c0.1-0.1,0.3-0.2,0.4-0.3c0.1-0.1,0.3-0.2,0.4-0.3c0.1-0.1,0.3-0.2,0.5-0.3
			C11.8,4.4,11.2,4.9,10.6,5.3C10.2,5.6,9.8,6,9.7,6.1L9.8,6c0,0-0.2,0.2-0.5,0.5C9,6.8,8.7,7.2,8.4,7.5C8.6,7.3,8.9,7,9.2,6.8
			C9.5,6.5,9.8,6.3,10,6.1C10.5,5.6,10.9,5.3,10.6,5.3z"/>
		<path class="st3" d="M9.4,6.3C9.6,6.1,9.8,5.9,10,5.7C9.8,5.9,9.6,6.1,9.4,6.3z"/>
		<path class="st3" d="M13.7,4.1c-0.5,0.3-1,0.6-1.5,0.9l0.4-0.2l0.5-0.3L13.7,4.1z"/>
		<path class="st3" d="M11.7,4.8c0.3-0.2,0.4-0.3,0.4-0.3s-0.1,0-0.2,0.1c-0.1,0-0.2,0.1-0.2,0.1s0.1-0.1,0.4-0.3
			c0.1-0.1-0.3,0.2-0.7,0.5s-0.9,0.7-0.9,0.8c0.1-0.1,0.4-0.3,0.6-0.5C11.4,5,11.6,4.8,11.7,4.8z"/>
		<path class="st3" d="M14.7,3.6c0.2-0.1,0.4-0.3,0.6-0.4l0.6-0.3l-0.6,0.3C15.1,3.4,14.9,3.5,14.7,3.6z"/>
		<path class="st3" d="M17.9,2.3l0.2-0.2c0.7-0.1,1.5-0.3,2.2-0.5c0.4-0.1,0.7-0.1,1-0.2c0.2,0,0.3,0,0.5-0.1c0.1,0,0.3,0,0.4,0
			c-0.1,0,0-0.1,0-0.1s0,0-0.1,0s-0.3,0-0.6,0c-0.2,0.1-0.6,0.2-0.5,0.2c-0.5,0.1-0.4,0-0.8,0C19.4,1.7,18,2,17.4,2.3
			c0.3-0.1,0.4-0.1,0.6-0.2c-0.3,0.2-0.6,0.3-0.9,0.3c-0.2,0.1-0.4,0.1-0.6,0.2c-0.1,0.2-0.3,0.2-0.6,0.4c0.2-0.1,0.6-0.3,0.9-0.4
			c0.2-0.1,0.4-0.1,0.5-0.2C17.6,2.5,17.7,2.4,17.9,2.3z"/>
		<path class="st3" d="M17.6,1.9C17.4,2,17.2,2,17,2.1l-0.6,0.2c0.2-0.1,0.5-0.3,0.8-0.4c0.4-0.1,0.7-0.2,0.8-0.3
			c-0.1,0-1.3,0.3-0.8,0.1c-0.1,0.3-1.6,0.6-0.9,0.6c-0.4,0.1-0.6,0.2-0.7,0.3c-0.1,0-0.2,0.1-0.3,0.1s-0.3,0-1,0.4l-0.4,0.3
			c0.4-0.2,0.7-0.4,1-0.5s0.5-0.2,0.8-0.3c0.2-0.1,0.5-0.2,0.8-0.3c0.1-0.1,0.3-0.1,0.5-0.2C17.2,2,17.4,1.9,17.6,1.9z"/>
		<path class="st3" d="M22.2,0.8h0.6h-0.4c0.2,0,0.3,0,0.5-0.1c0.2,0,0.3,0,0.5,0c0.3,0,0.6,0,0.9,0c0.6,0,1.1,0.1,1.5,0.1
			c0.5,0.1,0.9,0.1,1.3,0.2c0.2,0,0.4,0.1,0.6,0.1s0.4,0.1,0.6,0.1c0.3,0,0.5,0,0.7,0.1c0.2,0,0.5,0.1,0.7,0.1l0.4,0.1
			c0.1,0,0.2,0.1,0.4,0.1l0.7,0.2c0.2,0.1,0.5,0.1,0.7,0.2c0.2,0.1,0.5,0.1,0.7,0.2c0.5,0.2,0.9,0.3,1.4,0.5c1,0.3-0.9-0.4-1-0.5
			c0.2,0,0.4,0.1,0.6,0.2c0.2,0.1,0.5,0.3,0.7,0.3c0.1,0-0.4-0.3-1-0.5c-0.3-0.1-0.6-0.2-1-0.4c-0.3-0.1-0.6-0.2-0.8-0.3
			c-0.4-0.1-0.6-0.1-0.7-0.1s-0.2,0-0.3,0c-0.1-0.1-0.3-0.1-0.6-0.2c-0.2-0.1-0.5-0.1-0.6-0.2c-0.4,0-0.8-0.1-1.1-0.1
			c-0.3,0-0.6-0.1-0.9-0.1s-0.6-0.1-0.9-0.1s-0.7,0-1.1,0c-0.5-0.1,1.2,0,0.7,0c-0.3,0-0.6,0-0.9,0h0.1c-0.3,0-0.7,0.1-1,0.1
			c-0.4,0-0.8,0.1-1.2,0.1c-0.6-0.1-1.4-0.1-1.8,0c0.3,0,0.6,0,0.6,0c0.1,0,0,0.1-0.3,0.1h-0.6c-0.5,0.1-1,0.3-1.5,0.5
			c0.3-0.1,0.6-0.2,0.8-0.2c0.3-0.1,0.6-0.1,0.8-0.1c0.3,0,0.5-0.1,0.6-0.1C22,0.9,22.1,0.9,22.2,0.8z"/>
		<path class="st3" d="M20.5,0.9c-0.9,0.2-0.9,0.2-0.8,0.2c0,0,0,0-0.1,0.1c-0.1,0-0.1,0-0.3,0.1c-0.1,0-0.3,0.1-0.6,0.1l0.5-0.1
			c0.2,0,0.3-0.1,0.5-0.1C20,1.1,20.4,1,20.7,1C20.7,0.9,20.6,0.9,20.5,0.9z"/>
		<path class="st4" d="M29.1,1L30,1.2C29.8,1.1,29.3,1,29,1S28.6,1,29.1,1z"/>
		<path class="st4" d="M32.3,1.7h-0.5c0.3,0.1,0.6,0.1,0.9,0.2C32.6,1.8,32.5,1.8,32.3,1.7z"/>
		<path class="st3" d="M35.1,2.9C35.4,3,35.4,3,35.1,2.9c-0.1-0.2-0.4-0.4-0.8-0.5c0.2,0.1,0.3,0.1,0.4,0.2S34.9,2.8,35.1,2.9
			C35.1,2.9,35.2,3,35.1,2.9z"/>
		<path class="st4" d="M39.1,5.6C38.5,5.2,38.8,5.4,39.1,5.6c0.2,0.3,0.6,0.6,0.1,0.3c0.1,0,0.3,0.1,0.4,0.2c0,0,0,0,0-0.1
			c0,0-0.1-0.1-0.2-0.1C39.4,5.8,39.3,5.7,39.1,5.6z"/>
		<path class="st3" d="M42.4,9.1c-0.4-0.4-0.5-0.5-0.5-0.6C42.2,8.8,42.4,9,42.4,9.1z"/>
		<path class="st3" d="M26.4,1.1c-0.2,0-0.4,0-0.5,0C26,1.1,26.2,1.1,26.4,1.1z"/>
		<path class="st3" d="M26.7,1.1c-0.1,0-0.2,0-0.3,0C26.5,1.1,26.6,1.1,26.7,1.1z"/>
		<path class="st3" d="M37.1,4.6L37.1,4.6C37,4.5,37,4.5,37.1,4.6L37.1,4.6z"/>
		<path class="st3" d="M1.8,22.5c0,0.3,0,0.5,0,0.7C1.8,22.9,1.8,22.7,1.8,22.5L1.8,22.5z"/>
		<path class="st3" d="M1.6,23.2c0-0.6,0.1-0.9,0.2-1.4c0.1-0.2,0.1-0.4,0.2-0.7c0.1-0.3,0.1-0.7,0.2-1.2c-0.1,0.4-0.1,0.8-0.2,1.2
			c0,0.4-0.1,0.8-0.1,1.3C1.6,23.6,1.8,21.6,1.6,23.2z"/>
		<path class="st3" d="M8,8.1C8,8.1,8,8,8,8.1C8.1,7.9,8.1,8,8,8.1z"/>
		<path class="st4" d="M39.8,43.5L39.8,43.5c0.3-0.3,0.6-0.5,0.9-0.7C40.4,43.1,40,43.3,39.8,43.5z"/>
		<path class="st4" d="M39.6,43.6c-0.5,0.3-1,0.7-1.6,1c3.1-2,5.7-4.7,7.6-7.8c0,0.1-0.1,0.2-0.1,0.3c0,0,0,0.1-0.2,0.3
			c-0.1,0.2-0.3,0.5-0.6,0.8c-0.1,0.2-0.3,0.4-0.4,0.6c-0.1,0.2-0.3,0.4-0.5,0.6c-0.1,0.1-0.2,0.2-0.3,0.3s-0.2,0.2-0.3,0.3
			c-0.2,0.2-0.4,0.4-0.6,0.6c-0.8,0.8-1.6,1.6-2.2,2.1C39.9,43.3,39.5,43.6,39.6,43.6z"/>
		<path class="st4" d="M39.2,43.9c-0.2,0.2-0.4,0.4-0.6,0.5c-0.2,0.1-0.4,0.2-0.6,0.4c-0.1,0.1-0.2,0.1-0.3,0.2
			c-0.1,0.1-0.2,0.1-0.3,0.2c-0.2,0.1-0.5,0.3-0.8,0.5c0.4-0.2,0.7-0.5,1-0.7s0.6-0.4,1-0.6C38.8,44.2,39,44.1,39.2,43.9z"/>
		<path class="st5" d="M36.2,46.1c-0.1,0.1-0.3,0.1-0.4,0.2c-0.1,0.1-0.3,0.1-0.4,0.2c-0.3,0.1-0.5,0.3-0.7,0.3
			c0.1-0.1,0.3-0.2,0.6-0.4c0.1-0.1,0.3-0.1,0.5-0.2C35.9,46.3,36.1,46.2,36.2,46.1z"/>
		<path class="st3" d="M35,47.3c-0.1,0-0.2,0.1-0.3,0.1C34.8,47.4,34.9,47.3,35,47.3L35,47.3z"/>
		<path class="st3" d="M34.9,47.3L34.9,47.3C35.1,47.2,35.1,47.2,34.9,47.3z"/>
		<path class="st3" d="M34.7,47.4c-0.2,0.1-0.5,0.2-0.6,0.3l0.2-0.1C34,47.8,33.4,48,33.2,48c0.7-0.2,0.7-0.3,0.7-0.4L32.8,48
			C32.9,47.8,33.7,47.8,34.7,47.4z"/>
		<path class="st5" d="M31.2,48.6c0.4-0.1,0.7-0.3,1.1-0.4c0.2,0,0,0.1-0.3,0.2C31.8,48.4,31.5,48.6,31.2,48.6z"/>
		<path class="st3" d="M29.5,48.8c0.1,0,0.5-0.1,0.7-0.2c0.1,0,0.2,0,0.2-0.1c0,0,0,0-0.2,0c0.2-0.1,0.4-0.1,0.6-0.2
			C30.1,48.6,30.8,48.7,29.5,48.8z"/>
		<path class="st3" d="M30.8,48.5c0.1,0,0.2,0,0.3-0.1C31,48.4,30.9,48.4,30.8,48.5z"/>
		<path class="st5" d="M41.3,42.5C41.2,42.6,41.2,42.5,41.3,42.5L41.3,42.5z"/>
		<path class="st3" d="M27.2,49h-0.4C26.8,49,27,49,27.2,49L27.2,49z"/>
		<path class="st3" d="M48.7,24.7c0,0.4,0,0.7-0.1,1.1c0,0.4-0.1,0.7-0.1,1.1s-0.1,0.8-0.1,1.3c0,0.2-0.1,0.5-0.1,0.7
			s-0.1,0.5-0.1,0.8c0.2,0-0.1,0.8,0,1c0.2-1.1-0.2,1-0.9,3c-0.1,0.3-0.2,0.5-0.3,0.7s-0.2,0.5-0.3,0.7c-0.2,0.4-0.4,0.9-0.6,1.2
			c-0.3,0.6-0.5,0.9-0.2,0.5l0.2-0.5l-0.3,0.5c-0.6,0.9-1.5,2-1.9,2.6c0,0,0.1-0.1,0.2-0.3c0.1-0.1,0.2-0.2,0.3-0.3s0.2-0.3,0.3-0.5
			c0.5-0.7,1.1-1.6,1.6-2.6c0.1-0.3,0.3-0.5,0.4-0.7c0.1-0.2,0.2-0.5,0.3-0.7c0.1-0.1,0.1-0.2,0.2-0.4c0-0.1,0.1-0.2,0.1-0.3
			c0.1-0.2,0.2-0.4,0.2-0.6c0.3-0.8,0.4-1.3,0.4-1.2c0.1-0.1,0,0,0,0.3c-0.1,0.3-0.2,0.7-0.4,1.2c-0.4,1.1-1,2.5-1.9,3.9
			c-0.8,1.4-1.9,2.7-2.8,3.7c-0.2,0.2-0.4,0.5-0.6,0.6c-0.2,0.2-0.4,0.4-0.5,0.5c-0.3,0.3-0.5,0.4-0.5,0.5H41
			c-0.1,0.1-0.3,0.3-0.4,0.4c-0.1,0.1-0.3,0.3-0.4,0.4c-0.3,0.2-0.5,0.5-0.8,0.7s-0.5,0.4-0.7,0.6c-0.3,0.2-0.5,0.4-0.8,0.6
			l-0.3,0.1c0.2-0.1,0.4-0.2,0.6-0.3c0.2-0.1,0.3-0.2,0.4-0.3c0.3-0.2,0.5-0.4,0.9-0.7c-0.4,0.3-0.7,0.5-0.9,0.6
			c-0.3,0.2-0.5,0.3-0.7,0.4c-0.2,0.1-0.4,0.2-0.6,0.4c-0.2,0.1-0.5,0.3-0.8,0.4c0.1,0.1,0.3-0.1,0.4-0.1c0,0,0,0-0.1,0.1
			s-0.3,0.2-0.7,0.4c-0.2,0.1-0.1,0-0.1-0.1s-0.1,0-0.8,0.3c-1.7,0.7-1.3,0.8-2.9,1.3l0.3-0.1l0.3-0.1l0.5-0.2
			c-0.6,0.2-1.7,0.6-2.3,0.6c0.1,0,0.2,0,0.3-0.1c0.1,0,0.2-0.1,0.4-0.1c0.2-0.1,0.5-0.2,0.8-0.3c0.5-0.2,0.9-0.4,0.8-0.5
			c-0.6,0.3-2.1,0.6-2.7,0.8l0.3-0.2c-0.3,0-0.6,0.1-0.9,0.2c-0.3,0.1-0.6,0.1-1,0.2C28.7,48,28.8,48,29,48c0.2,0,0.4,0,0.2,0.1
			c-0.1,0-0.5,0-1,0.1c-0.1,0-0.2,0-0.4,0c-0.1,0-0.2,0-0.3,0c-0.2,0-0.4,0-0.5,0.1c0.1,0,0.3,0.1,0.5,0.1s0.5,0,0.7-0.1
			c0.3,0,0.5-0.1,0.8-0.1s0.6-0.1,0.8-0.1l-0.7,0.1l-0.7,0.1c-0.4,0.2,0.1,0.1,0.8,0c0.6-0.1,1.3-0.3,1.1-0.1
			c-0.5,0.2-1.1,0.3-1.7,0.3s-1.1,0-1.6,0.2c0.3,0,1.1,0,1.7-0.1c0.6,0,1.1-0.1,0.9-0.1c-0.4,0-0.7,0.1-1.1,0.2
			c-0.2,0-0.4,0.1-0.6,0.1s-0.4,0.1-0.7,0.1c-0.4,0-0.9,0-1.3,0C25.4,49,25.8,49,26.1,49c-1,0-2.2-0.1-3.6-0.2
			c-1.4-0.2-2.8-0.5-4.1-0.9c-0.2,0-0.3-0.1-0.4-0.1s-0.2-0.1-0.2-0.1c-0.1,0-0.1,0-0.1,0s0.2,0.1-0.2,0.1c-0.4-0.2-0.9-0.4-1.4-0.6
			c-0.3-0.1-0.5-0.2-0.8-0.3s-0.5-0.2-0.7-0.3s-0.7-0.2-0.5-0.1c0.7,0.3,1.4,0.6,2.1,0.9c-0.1,0,0.1,0.3,0.9,0.5
			c-0.1-0.1,0-0.1,0.3,0c0.1,0,0.3,0.1,0.5,0.2c0.2,0.1,0.4,0.1,0.6,0.2c0.8,0.3,1.8,0.5,1.9,0.4l-0.3,0.1c0.2,0.1,0.5,0.1,0.7,0.1
			l0.7,0.1c0.5,0,1,0.1,1.4,0.1h-0.1c0,0,0.1,0,0.4,0s0.6,0,1,0c0.2,0,0.4,0,0.6,0s0.4,0,0.7,0c0.2,0,0.4,0,0.7,0c0.1,0,0.2,0,0.3,0
			c0.1,0,0.2,0,0.3,0c-0.2,0.1-1,0.1-1.5,0.1s-0.8,0,0,0.1c-1.2,0.1-3.3-0.1-5.4-0.6l0.4,0.2c-1.1-0.2-2.4-0.5-3.7-1
			s-2.5-1.1-3.6-1.7c0.2,0.1,0.5,0.2,0.7,0.3c-0.2-0.1-0.4-0.2-0.6-0.4c-0.2-0.1-0.4-0.3-0.6-0.4c-0.2-0.1-0.4-0.3-0.6-0.4
			c-0.2-0.1-0.4-0.2-0.6-0.3c0.2,0.2,0.4,0.2,0.4,0.3c0.1,0.1,0.1,0.1,0.1,0.1s-0.2-0.1-0.3-0.1c-0.3-0.2-0.6-0.4-1-0.7
			c-0.3-0.3-0.7-0.5-1.1-0.9c-0.2-0.2-0.4-0.3-0.6-0.5C8.8,43.1,8.7,43,8.6,43l-0.3-0.3l-0.5-0.5c0-0.2-0.2-0.4-0.4-0.6
			c0,0,0.1,0.1,0,0S7.2,41.4,7,41.2l-0.4-0.4c-0.2-0.3-0.5-0.5-0.7-0.8c-0.6-0.8-0.7-1.1-1-1.6c-0.2-0.3-0.7-1-0.6-0.7
			c0.1,0.2,0.2,0.3,0.3,0.4c-0.7-0.8-0.4-0.6-1.1-1.7c0.6,0.8,0-0.3,0.2-0.3c-0.7-1.3-0.2,0-0.4-0.2c-0.1-0.2-0.2-0.4-0.3-0.6
			c-0.1-0.2-0.1-0.3-0.2-0.5c-0.1-0.3-0.2-0.5-0.3-0.8s-0.2-0.5-0.3-0.8S2,32.6,1.9,32.1c-0.1,0,0,0.3,0.1,0.6
			c0,0.1,0.1,0.2,0.1,0.3s0.1,0.2,0.1,0.2c0,0.1,0.1,0.3,0.1,0.3c-0.2-0.5-0.4-1.1-0.4-1.2C2,32.7,2.1,33,2.2,33.4
			C2,32.9,1.9,32.5,1.8,32c-0.1-0.2-0.1-0.5-0.2-0.7c0.1,0,0-0.3-0.1-0.5c-0.2-1-0.4-1.9-0.6-3V28l-0.1-0.7c0-0.2,0-0.4-0.1-0.7
			l0.2,0.5c0-0.4-0.1-0.7-0.1-1.1c0-0.3,0-0.6-0.1-0.8v0.3c0-0.3,0-0.6-0.1-0.9c0,0.3,0.1,0.6,0.1,0.9c0-0.3,0-0.6,0-0.9
			s0-0.7,0-1.1s0-0.8,0-1.2c0-0.4,0.1-0.9,0.1-1.3c0.1-0.1,0.1,0.1,0,0.3c0,0.1,0,0.3,0,0.5s0,0.4,0,0.6s0,0.4,0,0.7
			c0,0.1,0,0.2,0,0.3c0,0.1,0,0.2,0,0.3c0,0.4,0,0.6,0.1,0.7c0-0.3,0-0.7,0.1-1.1c0-0.4,0.1-0.7,0-0.9c-0.1,0.1-0.1,0.5-0.1,1
			c0-0.4,0-0.9,0.1-1.3c0-0.2,0.1-0.5,0.1-0.7c0-0.1,0-0.2,0-0.4c0-0.1,0-0.2,0.1-0.3c0.1-0.5,0.2-0.9,0.2-1.3
			c0.1-0.4,0.1-0.7,0.2-1c-0.1,0.2-0.1,0.4-0.2,0.6l-0.2,0.6c0.1-0.4,0.2-0.7,0.2-0.9c0.2-0.5,0.3-0.7,0.4-0.9
			c0.2-0.4,0.3-0.8,0.3-1L2,17.4c0,0.2,0,0.4,0,0.6c0-0.2,0.1-0.4,0.1-0.5c0.1-0.2,0.1-0.4,0.2-0.6c0.1-0.2,0.1-0.4,0.2-0.6
			c0-0.3,0.1-0.5,0.2-0.7s0.1-0.4,0.2-0.6c0.1-0.2,0.2-0.4,0.2-0.5c0.1-0.2,0.1-0.4,0.2-0.5c0.1-0.2,0.2-0.3,0.3-0.5
			c0,0-0.1,0.1-0.2,0.2c0,0.1-0.1,0.2-0.1,0.3s-0.1,0.2-0.1,0.3c-0.2,0.4-0.4,0.9-0.3,0.8C3,14.9,3,14.7,3.1,14.5
			c0.1-0.2,0.2-0.4,0.3-0.6c0.1-0.1,0.1-0.3,0.2-0.3c-0.1-0.1,0-0.2,0-0.3c0.1-0.1,0.1-0.2,0.2-0.4s0.3-0.5,0.7-1.1h0
			c0.1-0.2,0.3-0.4,0.5-0.7s0.4-0.5,0.5-0.8c0.1-0.2,0.3-0.4,0.4-0.5C6,9.7,6,9.8,5.9,10c-0.2,0.2-0.3,0.4-0.4,0.5h0.1
			c0.5-0.8,1.2-1.6,1.8-2.3C7.2,8.4,8.1,7.4,7.9,7.7c0.2-0.3,0.5-0.6,0.7-0.8c0.3-0.1-0.1,0.3-0.4,0.7C7.8,8,7.4,8.5,7.4,8.6
			c0,0,0.1-0.1,0.3-0.2C7.8,8.3,7.9,8.1,8,8.1c-0.8,1-1.4,1.3-2.2,2.4l-0.3,0.6L5.4,11c-0.1,0.2-0.3,0.5-0.3,0.6
			C5,11.8,5,11.9,4.9,12c-0.2,0.2-0.4,0.5-0.6,0.8S4,13.4,3.8,13.7c-0.1,0.2-0.2,0.3-0.2,0.5c0,0.2-0.1,0.4-0.2,0.6
			c-0.1,0.2-0.2,0.4-0.2,0.6C3.1,15.6,3,15.8,2.9,16c0.3-0.8,0.1-0.5,0-0.1c-0.2,0.4-0.4,0.9-0.4,0.8c-0.1,0.2-0.2,0.5-0.2,0.8
			c-0.1,0.3-0.2,0.7-0.2,1.1C2,19,2,19.3,1.9,19.6c-0.1,0.3-0.1,0.6-0.2,0.8c-0.2,0.5,0.1-1.1-0.1,0.1c0,0.2-0.1,0.4-0.1,0.5
			c0,0.2,0,0.3,0,0.4c0,0.2,0,0.2,0.1-0.1c-0.2,1.7-0.3,3.8-0.1,5.8l-0.1-0.5c0,0.2,0,0.3,0,0.5c0,0.1,0,0.3,0,0.4
			c0,0.3,0.1,0.6,0.1,0.8c0.1,0.5,0.3,0.9,0.4,1.2c0,0.2,0,0.3,0,0.1C2,30,2,30.3,2.1,30.6c0.1,0.3,0.2,0.5,0.3,0.8s0.2,0.6,0.4,1
			c0.1,0.4,0.3,0.8,0.6,1.4c0-0.1-0.1-0.4-0.2-0.8c-0.1-0.2-0.1-0.4-0.2-0.6c-0.1-0.2-0.2-0.4-0.2-0.6L3,32c-0.7-2-1.1-4.4-1.3-6.2
			l0.2,0.8c0-0.4,0-0.6,0-0.8c0-0.2,0-0.3-0.1-0.5c0-0.1,0-0.3-0.1-0.4c0-0.1,0-0.2,0-0.3c0-0.1,0-0.3,0.1-0.4c0-1-0.1,0.8-0.1,0
			c-0.2-0.4-0.1-0.3,0-0.4c0,0,0.1,0,0.1-0.1s0-0.3,0.1-0.6c-0.1,2.3,0.1,4.8,0.7,7.2c0.3,1.2,0.7,2.4,1.2,3.5s1.1,2.2,1.7,3.3
			c0.1,0.1-0.1-0.2-0.2-0.4c0.1,0.2,0.4,0.5,0.6,0.9c0.3,0.4,0.7,1,1.1,1.6c0.9,1.2,2.2,2.6,3.6,3.7c1.4,1.2,2.9,2.1,4.1,2.7
			c0.2,0.1,0.3,0.1,0.4,0.2c0.1,0.1,0.3,0.1,0.4,0.2c0.3,0.1,0.5,0.2,0.7,0.3c0.4,0.1,0.6,0.2,0.7,0.2c0.2,0.1-0.5-0.1,0.4,0.3
			c0.1,0,0.4,0.1,0.1-0.1c1.2,0.5,2.7,0.9,4.2,1.2c1.6,0.2,3.2,0.3,4.8,0.3c0,0,0.1-0.1,0.3-0.1c0.2,0,0.3-0.1,0.3-0.1
			c0.3,0,0.6,0,0.9,0s0.7-0.1,1-0.1c0.4-0.1,0.7-0.1,1-0.2c0.3-0.1,0.6-0.1,0.9-0.2h-0.3c1-0.2,2-0.5,3-0.9c0,0,0,0-0.2,0
			c-0.1,0-0.3,0.1-0.4,0.1c0.2-0.1,0.3-0.1,0.4-0.1c0.1,0,0.2-0.1,0.3-0.1s0.2,0,0.2,0l0.6-0.3l0.6-0.4c0.1,0,0.2-0.1,0.4-0.1
			c0.1,0,0.2-0.1,0.4-0.2c0.2-0.1,0.5-0.2,0.7-0.3c0.5-0.3,1-0.5,1.4-0.8c0.5-0.3,0.9-0.6,1.4-1s0.9-0.7,1.3-1.1
			c1.8-1.6,3.3-3.5,4.6-5.5c0.1-0.3,0.3-0.6,0.4-1c0.1-0.2,0.2-0.4,0.3-0.6c0.1-0.2,0.2-0.4,0.3-0.7c-0.1,0.2-0.2,0.3-0.3,0.5
			c0.2-0.6,0.2-0.6,0.3-0.6c0,0,0,0.1,0.2-0.4c0.2-0.7-0.1-0.3-0.4,0.6c-0.3,0.5-0.2,0.2,0-0.2c0.8-1.7,1.4-3.4,1.8-5
			C48.3,27.8,48.5,26.2,48.7,24.7z"/>
		<path class="st3" d="M47.8,20.6c0-0.2,0.1,0.2,0.2,0.5c0.1,0.3,0.1,0.6,0.1,0.1c-0.1-1.6-0.6-3.6-1.4-5.5c-0.4-1-0.9-1.9-1.4-2.8
			c-0.5-0.9-1.1-1.8-1.6-2.5c-0.1-0.2-0.2-0.4-0.3-0.5s-0.2-0.3-0.3-0.4c-0.2-0.2-0.4-0.5-0.7-0.8c0,0,0,0,0,0.1
			c-0.2-0.2-0.4-0.4-0.6-0.6c-0.2-0.2-0.5-0.4-0.7-0.7c-0.3-0.2-0.5-0.4-0.7-0.6s-0.5-0.4-0.7-0.6s-0.5-0.2,0,0.1
			c-0.3-0.2-0.6-0.4-0.9-0.6c-0.1-0.1-0.3-0.2-0.4-0.3c-0.1-0.1-0.2-0.2-0.4-0.3c-0.2-0.3-0.4-0.4-0.7-0.6c-0.2-0.1-0.4-0.3-0.6-0.3
			C37.3,4.7,36,4,36.8,4.5c-1.4-0.8-1.1-1-2.3-1.5c-0.1,0-0.2,0,0.1,0.1c-0.3-0.2-0.7-0.3-1.2-0.5c-0.2-0.1-0.5-0.2-0.7-0.2
			c-0.1,0-0.2-0.1-0.3-0.1s-0.2-0.1-0.3-0.1c-0.2-0.1-0.4-0.1-0.6-0.2c-0.3-0.1-0.5-0.2-0.6-0.2c-0.3-0.1-0.5-0.2-0.5-0.2
			c-0.2,0-0.4,0-0.6,0c-0.6-0.2-0.4-0.2-1.5-0.4c-0.7,0,0,0.1-0.2,0.1c-0.1-0.1-0.7-0.1-1.2-0.2c-0.3,0-0.6,0-0.9-0.1
			c-0.3,0-0.6-0.1-0.8-0.1c0,0,0.1,0,0.2,0s0.4,0,0.6,0.1c0.2,0,0.5,0.1,0.8,0.1s0.5,0,0.7,0c0,0-0.1,0-0.3-0.1
			c1.1,0.1,2.1,0.3,3,0.5C31.1,1.8,32,2,32.8,2.4c1.7,0.7,3.2,1.4,4.7,2.3c0.3,0.3,0.6,0.4,0.8,0.6c0.3,0.1,0.5,0.2,0.6,0.3
			c-0.1-0.1-0.3-0.3-0.5-0.4C38.2,5,38,4.9,37.7,4.7c-0.2-0.2-0.4-0.3-0.6-0.3c-0.2-0.1-0.3-0.1-0.3-0.1C36.6,4,36.3,3.8,36,3.6
			c-0.4-0.2-0.3-0.4-0.4-0.5c0.7,0.4,1.6,0.6,0.7,0c0.9,0.5,0.7,0.5,0.5,0.5c-0.1,0-0.2,0-0.2,0s0.2,0.1,0.6,0.4h0.3
			c-0.2,0,0.1,0.1,0.4,0.4c0.3,0.3,0.8,0.5,1.1,0.7C38.9,5,38.9,5,38.8,4.9c1,0.7,2,1.5,3,2.5c1,0.9,2,2,2.8,3.2
			c0.9,1.2,1.6,2.4,2.3,3.7c0.6,1.3,1.1,2.6,1.5,3.9c0,0.2,0,0.4,0.1,0.6c0,0.2,0.1,0.4,0.1,0.6s0.1,0.4,0.2,0.7
			c0.1,0.2,0.1,0.5,0.2,0.7c0,0.1,0.1,0.2,0.1,0.4c0,0.1,0,0.2,0.1,0.4c0,0.2,0.1,0.5,0.1,0.7c0,0.4,0,0.8,0,1.1
			c0.1,0.6,0.1-0.8,0.2,0.3c0,0.6-0.1,0.6-0.1,0.6c0,0.2,0,0.3,0,0.5c-0.2,0.2-0.3,0.1-0.5-0.6c0-0.2-0.1-0.3-0.1-0.6
			c0-0.2-0.1-0.5-0.2-0.8c0-0.1-0.1-0.3-0.1-0.5s-0.1-0.3-0.1-0.5s-0.1-0.4-0.1-0.6C47.9,21,47.9,20.8,47.8,20.6z"/>
	</g>
	<g>
		<g>
			<path class="st6" d="M37.1,32"/>
		</g>
	</g>
	<path class="st1" d="M37.6,23.5c-0.2-2-2.9-3.4-4.3-1.7c-0.4,0.5-0.6,1.1-1,1.7l-0.2,0.4l-0.2-0.4c-0.6-1.2-1.7-2.4-3.2-2
		c-1.4,0.4-2.2,2-1.7,3.3c0.8,2.6,3,4.9,5.2,6.4c0.3,0.2,0.4,0.1,0.7-0.1c1.8-1.6,3.5-3.6,4.4-5.9C37.7,24.4,37.6,23.5,37.6,23.5z
		 M37.7,23.5c0.1,0.6,0,1.3-0.2,1.9c-0.9,2.3-2.3,4.6-4.2,6.3c-1.5,1.4-4.9-3.5-5.6-4.7s-1.3-2.8-0.6-4.2c0.6-1.4,2.5-2.1,3.8-1.2
		c0.6,0.4,1.1,1,1.4,1.7h-0.4c0.3-0.6,0.6-1.2,1.1-1.8C34.5,19.8,37.5,21.4,37.7,23.5L37.7,23.5z"/>
</g>
</svg>
