<?xml version="1.0" encoding="UTF-8"?>
<svg id="Layer_1" xmlns="http://www.w3.org/2000/svg" version="1.1" viewBox="0 0 128 128">
  <!-- Generator: Adobe Illustrator 29.5.0, SVG Export Plug-In . SVG Version: 2.1.0 Build 137)  -->
  <defs>
    <style>
      .st0, .st1 {
        fill: none;
      }

      .st1 {
        stroke: #f3f4f2;
        stroke-miterlimit: 10;
      }

      .st2 {
        fill: #c4cec1;
      }

      .st3 {
        fill: #b4ccba;
      }

      .st4 {
        fill: #fff;
      }

      .st5 {
        fill: #f598b0;
      }
    </style>
  </defs>
  <g>
    <path class="st4" d="M52.9,81.5c.5-.5,1-.2,1.5-.2-.2.2-1,0-1.5.2Z"/>
    <path class="st4" d="M57.5,76.4q.2.2,0,0t0,0Z"/>
  </g>
  <g>
    <path class="st3" d="M62.8,11.9c-6.8-4.6-20.9-3.4-23.5,4.8-2.7,9,7.3,14.8,3.4,24.7-6.1,15.3,15.3,22.3,29.8,26.2-12.4,2.9-32-.5-37.6,10.2-5.6,11.4-1,26.9,10.9,34.7,9.7,6.3,20.6,1.7,25.5-1.9,9.2-6.8,9.7-25.5,9.2-28.9-.2-17.7,4.6-56.7-17.7-69.8ZM78.1,85.1c-1,18.4-5.6,26.9-18.4,29.1-3.2.5-7.5,1.2-11.2-2.2-14.5-12.8-22.3-38.5,6.3-40,2.9-.2,15.5-1.5,19.9-2.9.7-.2,1-.7,1-1-.2-1.2-1-2.4-2.9-2.7-1.9-.5-4.1-1-6.3-1.5-9.7-3.2-26.9-7.5-21.3-24.5,2.4-8-6.8-14.8-4.1-22.5,4.1-7.5,13.6-8.5,19.9-3.9,15.3,10.7,19.9,20.9,17.2,72Z"/>
    <path class="st5" d="M82.5,92.1c4.8,28.6-32.7,36.6-43.9,6.5-11.9-32.5,22.1-22.8,36.6-30.3-15.8-1.5-40-3.9-36.6-26.9.5-3.4-1.2-6.1-3.4-8.5C15.5,10.2,73.5-3.6,79.8,66.2c.2.5,1.9-2.4,2.2-1.9,1.5,1.2,2.4-3.4,4.4-1.5.7.5-.5.7-.7,1.5-1.2,2.7.7,2.9-1.7,4.4-5.3,4.4-1.7,17.5-1.5,23.5ZM80.3,71.8v-.5c.7-.2.2-1.2,0-1.5,0-.2,0-.5-.5-.5-1.5-3.2-4.4,1.7-9.5,2.7-18.7,3.2-40,5.8-29.1,26.9,1.9,3.6,4.6,10.7,11.6,15.5,9.2,6.3,28.6-2.7,27.4-15.8-.2-9-1.9-17.2,0-26.9ZM42,54.8c4.8,7.8,33.5,16,36.1,11.4-1.5-15.8-7.3-40.2-22.5-49-7.5-4.8-24-2.7-22.1,8,.2,2.4,1.7,4.6,3.4,6.3,7.5,5.8,1,16.2,5.1,23.3Z"/>
    <path class="st2" d="M79.8,69.1c-.7,0-1-1-1.7-.7.7-.5,1-.2,1.7.7Z"/>
    <path class="st2" d="M80.3,69.8c-.2,0-.5-.2-.5-.5.2,0,.5.2.5.5Z"/>
    <path class="st2" d="M80.3,71.5c0-.2,0-.5.2-.5q0,.2-.2.5Z"/>
  </g>
  <path class="st5" d="M86.8,62.3c-1-1.2-2.4-1.2-3.6,0s-1.2,1.2-1.7,1.9c-.5-1.2-1.7-2.2-2.9-2.2s-2.4,1.2-2.4,2.9.2,1.7.7,2.4h0s2.9,4.6,3.9,4.8c.7.2,3.4-2.2,5.1-4.4,1.5-2.2,1.7-4.4,1-5.6Z"/>
  <g>
    <path class="st4" d="M9,82.2c-1-1.7-1.9-5.3-1.5-5.3q-.2,0-.5-.2c0-.2-.2-.5-.2-.7-.2-.2-.2-.7-.5-1.5.2,0-.2-2.2-.5-3.9,0,1.2.2,2.9,1,6.3.2.2.2.7.5,1.2s.2,1,.5,1.5.2,1,.5,1.7c.2.5.2,1.2.5,1.7,0,.2.2.5.2.7s.2.5.2.7c.2.5.5,1,.7,1.5.5,1,1,1.9,1.2,2.4-.7-1.7-1.2-3.6-2.2-6.1Z"/>
    <path class="st4" d="M7.5,68.4l-.2-.5c0,.5,0,1,.2,1.2l.2,1.2.2,1.2c0,.5.2,1,.2,1.2,0-.2-.2-.7-.2-1.2s-.2-1-.2-1.5-.2-1-.2-1.7c0,.2,0,0,0,0Z"/>
    <path class="st2" d="M8,51.4c0,.5,1-2.2,1-1.9-.5,0,1-4.1,1.7-6.3v-1c-.2.2-.2.5-.5,1-.2.2-.2.7-.5,1.2-.2.5-.2,1-.5,1.5-.2.5-.2,1-.5,1.7-.7,2.2-1.2,4.8-1.5,7.3.2-1.2.5-2.4.7-3.4Z"/>
    <path class="st4" d="M9.5,47.3c0-.5,0-1,.2-1.5-.5,1.2-1.2,4.1-.2,1.5Z"/>
    <path class="st4" d="M7.3,50.2c-1,3.6.7-2.2,0,1.5.2-1.2.5-2.7,0-1.5Z"/>
    <path class="st2" d="M13.6,35.7c-1.2,2.4-2.2,4.8-3.2,7.3l.7-1.5.2-.7.5-.7c.2-.7.5-1.5.7-2.2l1-2.2Z"/>
    <path class="st2" d="M14.6,35.7c-.5,1-1.5,2.4-.7,1,.5-.7.7-1.2,1-1.7l.7-1.5c.2-.5.5-1,1-1.5.2-.2.2-.5.5-.7s.5-.5.5-.7c-.5.7-1,1.5-1.2,2.2.2,0,.7-1.2,1.5-2.2.2-.5.7-1,1-1.5.5-.5.5-.7.7-.7,1.7-2.9-1.9,1.7.5-1.9-.7,1-1.2,1.7-1.7,2.4s-1,1.5-1.5,2.2c-.5.7-1,1.5-1.5,2.2s-1,1.5-1.5,2.2c.7-.7.7-1.2,1.7-2.4-1.2,2.2-2.7,5.3-3.9,8,.5-.7,1-1.5,1.2-2.4l.7-1.5c.2-.5.5-1,1-1.5Z"/>
    <path class="st2" d="M21.8,25.2c1.7-1.9,4.8-4.8,5.1-5.6-1.2,1-1.7,1.5-2.2,1.9-.5.5-.7,1-1,1.5-.5.2-1,1-1.5,1.2-.5.5-.7.7-.5.2.2-.2-1,1.7,0,.7Z"/>
    <path class="st2" d="M29.6,18.2c.5-.5,1-1,1.5-1.5-.2.2-.7.5-1,.7h-.2s-.2.5-.7.7c-.2.2-.5.5-.7.7-.2.2-.7.7-1.2,1.2.5-.5,1-.7,1.2-1,.2-.2.5-.7,1.2-1Z"/>
    <path class="st2" d="M28.9,16.3c.5-.2.7-.5,1-.7s.7-.5,1-.7c.2-.2.7-.5,1-.7.2-.2.7-.5,1.2-.7-1.2.7-2.7,1.9-4.1,2.9-1,.7-1.9,1.7-2.2,1.9l.2-.2-1.2,1.2c-.7.7-1.5,1.7-2.2,2.4.5-.5,1.2-1.2,1.9-1.7.7-.7,1.5-1.2,1.9-1.7,1.2-1.2,2.2-1.9,1.5-1.9Z"/>
    <path class="st2" d="M26,18.7c.5-.5,1-1,1.5-1.5-.5.5-1,1-1.5,1.5Z"/>
    <path class="st2" d="M36.4,13.4c-1.2.7-2.4,1.5-3.6,2.2l1-.5,1.2-.7,1.5-1Z"/>
    <path class="st2" d="M31.5,15c.7-.5,1-.7,1-.7,0,0-.2,0-.5.2-.2,0-.5.2-.5.2,0,0,.2-.2,1-.7.2-.2-.7.5-1.7,1.2s-2.2,1.7-2.2,1.9c.2-.2,1-.7,1.5-1.2.7-.5,1.2-1,1.5-1Z"/>
    <path class="st2" d="M38.8,12.1c.5-.2,1-.7,1.5-1l1.5-.7-1.5.7c-.5.5-1,.7-1.5,1Z"/>
    <path class="st2" d="M46.6,9l.5-.5c1.7-.2,3.6-.7,5.3-1.2,1-.2,1.7-.2,2.4-.5.5,0,.7,0,1.2-.2h1c-.2,0,0-.2,0-.2h-1.7c-.5.2-1.5.5-1.2.5-1.2.2-1,0-1.9,0-1.9.7-5.3,1.5-6.8,2.2.7-.2,1-.2,1.5-.5-.7.5-1.5.7-2.2.7-.5.2-1,.2-1.5.5-.2.5-.7.5-1.5,1,.5-.2,1.5-.7,2.2-1,.5-.2,1-.2,1.2-.5.7.2,1,0,1.5-.2Z"/>
    <path class="st2" d="M45.8,8c-.5.2-1,.2-1.5.5l-1.5.5c.5-.2,1.2-.7,1.9-1,1-.2,1.7-.5,1.9-.7-.2,0-3.2.7-1.9.2-.2.7-3.9,1.5-2.2,1.5-1,.2-1.5.5-1.7.7-.2,0-.5.2-.7.2s-.7,0-2.4,1l-1,.7c1-.5,1.7-1,2.4-1.2s1.2-.5,1.9-.7c.5-.2,1.2-.5,1.9-.7.2-.2.7-.2,1.2-.5.5-.2,1-.5,1.5-.5Z"/>
    <path class="st2" d="M57,5.4h1.5-1c.5,0,.7,0,1.2-.2h3.4c1.5,0,2.7.2,3.6.2,1.2.2,2.2.2,3.2.5.5,0,1,.2,1.5.2s1,.2,1.5.2c.7,0,1.2,0,1.7.2.5,0,1.2.2,1.7.2l1,.2c.2,0,.5.2,1,.2l1.7.5c.5.2,1.2.2,1.7.5.5.2,1.2.2,1.7.5,1.2.5,2.2.7,3.4,1.2,2.4.7-2.2-1-2.4-1.2.5,0,1,.2,1.5.5.5.2,1.2.7,1.7.7s-1-.7-2.4-1.2c-.7-.2-1.5-.5-2.4-1-.7-.2-1.5-.5-1.9-.7-1-.2-1.5-.2-1.7-.2h-.7c-.2-.2-.7-.2-1.5-.5-.5-.2-1.2-.2-1.5-.5-1,0-1.9-.2-2.7-.2s-1.5-.2-2.2-.2-1.5-.2-2.2-.2h-2.7c-1.2-.2,2.9,0,1.7,0h-2.2.2c-.7,0-1.7.2-2.4.2s-1.9.2-2.9.2c-1.5-.2-3.4-.2-4.4,0h1.5c.2,0,0,.2-.7.2h-1.5c-1.2.2-2.4.7-3.6,1.2.7-.2,1.5-.5,1.9-.5.7-.2,1.5-.2,1.9-.2.7,0,1.2-.2,1.5-.2,1-.5,1.2-.5,1.5-.7Z"/>
    <path class="st2" d="M52.9,5.6q-2.2.5-1.9.5l-.2.2q-.2,0-.7.2c-.2,0-.7.2-1.5.2l1.2-.2c.5,0,.7-.2,1.2-.2.7-.2,1.7-.5,2.4-.5,0-.2-.2-.2-.5-.2Z"/>
    <path class="st4" d="M73.7,5.8l2.2.5c-.5-.2-1.7-.5-2.4-.5s-1,0,.2,0Z"/>
    <path class="st4" d="M81.5,7.5h-1.2c.7.2,1.5.2,2.2.5-.2-.2-.5-.2-1-.5Z"/>
    <path class="st2" d="M88.3,10.4q.7.2,0,0c-.2-.5-1-1-1.9-1.2.5.2.7.2,1,.5s.5.5,1,.7c0,0,.2.2,0,0Z"/>
    <path class="st4" d="M98,17c-1.5-1-.7-.5,0,0,.5.7,1.5,1.5.2.7.2,0,.7.2,1,.5v-.2s-.2-.2-.5-.2c0-.2-.2-.5-.7-.7Z"/>
    <path class="st2" d="M106,25.5c-1-1-1.2-1.2-1.2-1.5.7.7,1.2,1.2,1.2,1.5Z"/>
    <path class="st2" d="M67.2,6.1h-1.2,1.2Z"/>
    <path class="st2" d="M67.9,6.1h-.7.7Z"/>
    <path class="st2" d="M93.1,14.6h0q-.2-.2,0,0h0Z"/>
    <path class="st2" d="M7.5,58v1.7-1.7h0Z"/>
    <path class="st2" d="M7.1,59.7c0-1.5.2-2.2.5-3.4.2-.5.2-1,.5-1.7.2-.7.2-1.7.5-2.9-.2,1-.2,1.9-.5,2.9,0,1-.2,1.9-.2,3.2-.7,2.9-.2-1.9-.7,1.9Z"/>
    <path class="st2" d="M22.6,23s0-.2,0,0c.2-.5.2-.2,0,0Z"/>
    <path class="st4" d="M99.7,108.9h0c.7-.7,1.5-1.2,2.2-1.7-.7.7-1.7,1.2-2.2,1.7Z"/>
    <path class="st4" d="M99.2,109.1c-1.2.7-2.4,1.7-3.9,2.4,7.5-4.8,13.8-11.4,18.4-18.9,0,.2-.2.5-.2.7,0,0,0,.2-.5.7-.2.5-.7,1.2-1.5,1.9-.2.5-.7,1-1,1.5-.2.5-.7,1-1.2,1.5l-.7.7-.7.7-1.5,1.5c-1.9,1.9-3.9,3.9-5.3,5.1-1.2,1.5-2.2,2.2-1.9,2.2Z"/>
    <path class="st4" d="M98.2,109.8c-.5.5-1,1-1.5,1.2-.5.2-1,.5-1.5,1-.2.2-.5.2-.7.5-.2.2-.5.2-.7.5-.5.2-1.2.7-1.9,1.2,1-.5,1.7-1.2,2.4-1.7s1.5-1,2.4-1.5c.5-.5,1-.7,1.5-1.2Z"/>
    <path class="st0" d="M90.9,115.2c-.2.2-.7.2-1,.5s-.7.2-1,.5c-.7.2-1.2.7-1.7.7.2-.2.7-.5,1.5-1,.2-.2.7-.2,1.2-.5.2.2.7,0,1-.2Z"/>
    <path class="st2" d="M88,118.1c-.2,0-.5.2-.7.2.2,0,.5-.2.7-.2h0Z"/>
    <path class="st2" d="M87.8,118.1h0q.5-.2,0,0Z"/>
    <path class="st2" d="M87.3,118.3c-.5.2-1.2.5-1.5.7l.5-.2c-.7.5-2.2,1-2.7,1,1.7-.5,1.7-.7,1.7-1l-2.7,1c.2-.5,2.2-.5,4.6-1.5Z"/>
    <path class="st0" d="M78.8,121.2c1-.2,1.7-.7,2.7-1,.5,0,0,.2-.7.5-.5,0-1.2.5-1.9.5Z"/>
    <path class="st2" d="M74.7,121.7c.2,0,1.2-.2,1.7-.5.2,0,.5,0,.5-.2h-.5c.5-.2,1-.2,1.5-.5-1.7.7,0,1-3.2,1.2Z"/>
    <path class="st2" d="M77.8,121c.2,0,.5,0,.7-.2-.2,0-.5,0-.7.2Z"/>
    <path class="st0" d="M103.3,106.5c-.2.2-.2,0,0,0h0Z"/>
    <path class="st2" d="M69.1,122.2h-1s.5,0,1,0h0Z"/>
    <path class="st2" d="M121.2,63.3c0,1,0,1.7-.2,2.7,0,1-.2,1.7-.2,2.7s-.2,1.9-.2,3.2-.2,1.2-.2,1.7-.2,1.2-.2,1.9c.5,0-.2,1.9,0,2.4.5-2.7-.5,2.4-2.2,7.3-.2.7-.5,1.2-.7,1.7s-.5,1.2-.7,1.7c-.5,1-1,2.2-1.5,2.9-.7,1.5-1.2,2.2-.5,1.2l.5-1.2-.7,1.2c-1.5,2.2-3.6,4.8-4.6,6.3,0,0,.2-.2.5-.7l.7-.7c.2-.2.5-.7.7-1.2,1.2-1.7,2.7-3.9,3.9-6.3.2-.7.7-1.2,1-1.7.2-.5.5-1.2.7-1.7.2-.2.2-.5.5-1,0-.2.2-.5.2-.7.2-.5.5-1,.5-1.5.7-1.9,1-3.2,1-2.9.2-.2,0,0,0,.7-.2.7-.5,1.7-1,2.9-1,2.7-2.4,6.1-4.6,9.5-1.9,3.4-4.6,6.5-6.8,9-.5.5-1,1.2-1.5,1.5l-1.2,1.2c-.7.7-1.2,1-1.2,1.2h-.5l-1,1-1,1c-.7.5-1.2,1.2-1.9,1.7s-1.2,1-1.7,1.5c-.7.5-1.2,1-1.9,1.5l-.7.2c.5-.2,1-.5,1.5-.7.5-.2.7-.5,1-.7.7-.5,1.2-1,2.2-1.7-1,.7-1.7,1.2-2.2,1.5-.7.5-1.2.7-1.7,1-.5.2-1,.5-1.5,1-.5.2-1.2.7-1.9,1,.2.2.7-.2,1-.2l-.2.2c-.2.2-.7.5-1.7,1-.5.2-.2,0-.2-.2s-.2,0-1.9.7c-4.1,1.7-3.2,1.9-7,3.2l.7-.2.7-.2,1.2-.5c-1.5.5-4.1,1.5-5.6,1.5.2,0,.5,0,.7-.2.2,0,.5-.2,1-.2.5-.2,1.2-.5,1.9-.7,1.2-.5,2.2-1,1.9-1.2-1.5.7-5.1,1.5-6.5,1.9l.7-.5c-.7,0-1.5.2-2.2.5-.7.2-1.5.2-2.4.5-1,.2-.7.2-.2.2s1,0,.5.2c-.2,0-1.2,0-2.4.2h-1.7c-.5,0-1,0-1.2.2.2,0,.7.2,1.2.2s1.2,0,1.7-.2c.7,0,1.2-.2,1.9-.2s1.5-.2,1.9-.2l-1.7.2-1.7.2c-1,.5.2.2,1.9,0,1.5-.2,3.2-.7,2.7-.2-1.2.5-2.7.7-4.1.7s-2.7,0-3.9.5c.7,0,2.7,0,4.1-.2,1.5,0,2.7-.2,2.2-.2-1,0-1.7.2-2.7.5-.5,0-1,.2-1.5.2s-1,.2-1.7.2h-3.2c-1.2.2-.2.2.5.2-2.4,0-5.3-.2-8.7-.5-3.4-.5-6.8-1.2-9.9-2.2-.5,0-.7-.2-1-.2s-.5-.2-.5-.2h-.2s.5.2-.5.2c-1-.5-2.2-1-3.4-1.5-.7-.2-1.2-.5-1.9-.7s-1.2-.5-1.7-.7-1.7-.5-1.2-.2c1.7.7,3.4,1.5,5.1,2.2-.2,0,.2.7,2.2,1.2-.2-.2,0-.2.7,0,.2,0,.7.2,1.2.5.5.2,1,.2,1.5.5,1.9.7,4.4,1.2,4.6,1l-.7.2c.5.2,1.2.2,1.7.2l1.7.2c1.2,0,2.4.2,3.4.2h-.2,9.7c-.5.2-2.4.2-3.6.2s-1.9,0,0,.2c-2.9.2-8-.2-13.1-1.5l1,.5c-2.7-.5-5.8-1.2-9-2.4s-6.1-2.7-8.7-4.1c.5.2,1.2.5,1.7.7-.5-.2-1-.5-1.5-1-.5-.2-1-.7-1.5-1-.5-.2-1-.7-1.5-1-.5-.2-1-.5-1.5-.7.5.5,1,.5,1,.7l.2.2s-.5-.2-.7-.2c-.7-.5-1.5-1-2.4-1.7-.7-.7-1.7-1.2-2.7-2.2-.5-.5-1-.7-1.5-1.2,0-.2-.2-.5-.5-.5l-.7-.7-1.2-1.2c0-.5-.5-1-1-1.5,0,0,.2.2,0,0s-.5-.5-1-1l-1-1c-.5-.7-1.2-1.2-1.7-1.9-1.5-1.9-1.7-2.7-2.4-3.9-.5-.7-1.7-2.4-1.5-1.7.2.5.5.7.7,1-1.7-1.9-1-1.5-2.7-4.1,1.5,1.9,0-.7.5-.7-1.7-3.2-.5,0-1-.5-.2-.5-.5-1-.7-1.5-.2-.5-.2-.7-.5-1.2-.2-.7-.5-1.2-.7-1.9s-.5-1.2-.7-1.9-.5-1.5-.7-2.7c-.2,0,0,.7.2,1.5,0,.2.2.5.2.7s.2.5.2.5c0,.2.2.7.2.7-.5-1.2-1-2.7-1-2.9.2,1,.5,1.7.7,2.7-.5-1.2-.7-2.2-1-3.4-.2-.5-.2-1.2-.5-1.7.2,0,0-.7-.2-1.2-.5-2.4-1-4.6-1.5-7.3v.5l-.2-1.7c0-.5,0-1-.2-1.7l.5,1.2c0-1-.2-1.7-.2-2.7s0-1.5-.2-1.9v.7c0-.7,0-1.5-.2-2.2,0,.7.2,1.5.2,2.2v-7.8c0-1,.2-2.2.2-3.2.2-.2.2.2,0,.7v5.8c0,1,0,1.5.2,1.7,0-.7,0-1.7.2-2.7,0-1,.2-1.7,0-2.2-.2.2-.2,1.2-.2,2.4,0-1,0-2.2.2-3.2,0-.5.2-1.2.2-1.7v-1c0-.2,0-.5.2-.7.2-1.2.5-2.2.5-3.2.2-1,.2-1.7.5-2.4-.2.5-.2,1-.5,1.5l-.5,1.5c.2-1,.5-1.7.5-2.2.5-1.2.7-1.7,1-2.2.5-1,.7-1.9.7-2.4l-.2,1.5v1.5c0-.5.2-1,.2-1.2.2-.5.2-1,.5-1.5.2-.5.2-1,.5-1.5,0-.7.2-1.2.5-1.7s.2-1,.5-1.5c.2-.5.5-1,.5-1.2.2-.5.2-1,.5-1.2.2-.5.5-.7.7-1.2,0,0-.2.2-.5.5,0,.2-.2.5-.2.7s-.2.5-.2.7c-.5,1-1,2.2-.7,1.9.2-.5.2-1,.5-1.5s.5-1,.7-1.5c.2-.2.2-.7.5-.7-.2-.2,0-.5,0-.7.2-.2.2-.5.5-1s.7-1.2,1.7-2.7h0c.2-.5.7-1,1.2-1.7s1-1.2,1.2-1.9c.2-.5.7-1,1-1.2.2-.2.2,0,0,.5-.5.5-.7,1-1,1.2h.2c1.2-1.9,2.9-3.9,4.4-5.6-.5.5,1.7-1.9,1.2-1.2.5-.7,1.2-1.5,1.7-1.9.7-.2-.2.7-1,1.7-1,1-1.9,2.2-1.9,2.4,0,0,.2-.2.7-.5.2-.2.5-.7.7-.7-1.9,2.4-3.4,3.2-5.3,5.8l-.7,1.5-.2-.2c-.2.5-.7,1.2-.7,1.5-.2.5-.2.7-.5,1-.5.5-1,1.2-1.5,1.9s-.7,1.5-1.2,2.2c-.2.5-.5.7-.5,1.2s-.2,1-.5,1.5c-.2.5-.5,1-.5,1.5l-.7,1.5c.7-1.9.2-1.2,0-.2-.5,1-1,2.2-1,1.9-.2.5-.5,1.2-.5,1.9-.2.7-.5,1.7-.5,2.7-.2,1-.2,1.7-.5,2.4-.2.7-.2,1.5-.5,1.9-.5,1.2.2-2.7-.2.2,0,.5-.2,1-.2,1.2v1q0,.5.2-.2c-.5,4.1-.7,9.2-.2,14.1l-.2-1.2v2.2c0,.7.2,1.5.2,1.9.2,1.2.7,2.2,1,2.9,0,.5,0,.7,0,.2.2,1,.2,1.7.5,2.4.2.7.5,1.2.7,1.9s.5,1.5,1,2.4c.2,1,.7,1.9,1.5,3.4,0-.2-.2-1-.5-1.9-.2-.5-.2-1-.5-1.5-.2-.5-.5-1-.5-1.5l.5.5c-1.7-4.8-2.7-10.7-3.2-15l.5,1.9v-1.9c0-.5,0-.7-.2-1.2,0-.2,0-.7-.2-1v-.7c0-.2,0-.7.2-1,0-2.4-.2,1.9-.2,0-.5-1-.2-.7,0-1,0,0,.2,0,.2-.2s0-.7.2-1.5c-.2,5.6.2,11.6,1.7,17.5.7,2.9,1.7,5.8,2.9,8.5s2.7,5.3,4.1,8c.2.2-.2-.5-.5-1,.2.5,1,1.2,1.5,2.2.7,1,1.7,2.4,2.7,3.9,2.2,2.9,5.3,6.3,8.7,9,3.4,2.9,7,5.1,9.9,6.5.5.2.7.2,1,.5.2.2.7.2,1,.5.7.2,1.2.5,1.7.7,1,.2,1.5.5,1.7.5.5.2-1.2-.2,1,.7.2,0,1,.2.2-.2,2.9,1.2,6.5,2.2,10.2,2.9,3.9.5,7.8.7,11.6.7,0,0,.2-.2.7-.2s.7-.2.7-.2h2.2c.7,0,1.7-.2,2.4-.2,1-.2,1.7-.2,2.4-.5.7-.2,1.5-.2,2.2-.5h-.7c2.4-.5,4.8-1.2,7.3-2.2h-.5c-.2,0-.7.2-1,.2.5-.2.7-.2,1-.2s.5-.2.7-.2h.5l1.5-.7,1.5-1c.2,0,.5-.2,1-.2s.5-.2,1-.5c.5-.2,1.2-.5,1.7-.7,1.2-.7,2.4-1.2,3.4-1.9,1.2-.7,2.2-1.5,3.4-2.4s2.2-1.7,3.2-2.7c4.4-3.9,8-8.5,11.2-13.3.2-.7.7-1.5,1-2.4.2-.5.5-1,.7-1.5.2-.5.5-1,.7-1.7-.2.5-.5.7-.7,1.2q.5-1.5.7-1.5s0,.2.5-1c.5-1.7-.2-.7-1,1.5-.7,1.2-.5.5,0-.5,1.9-4.1,3.4-8.2,4.4-12.1,1.2-3.9,1.7-7.8,2.2-11.4Z"/>
    <path class="st2" d="M119.1,53.4c0-.5.2.5.5,1.2.2.7.2,1.5.2.2-.2-3.9-1.5-8.7-3.4-13.3-1-2.4-2.2-4.6-3.4-6.8-1.2-2.2-2.7-4.4-3.9-6.1-.2-.5-.5-1-.7-1.2s-.5-.7-.7-1c-.5-.5-1-1.2-1.7-1.9v.2c-.5-.5-1-1-1.5-1.5-.5-.5-1.2-1-1.7-1.7-.7-.5-1.2-1-1.7-1.5s-1.2-1-1.7-1.5-1.2-.5,0,.2c-.7-.5-1.5-1-2.2-1.5-.2-.2-.7-.5-1-.7-.2-.2-.5-.5-1-.7-.5-.7-1-1-1.7-1.5-.5-.2-1-.7-1.5-.7,1.5,1-1.7-.7.2.5-3.4-1.9-2.7-2.4-5.6-3.6-.2,0-.5,0,.2.2-.7-.5-1.7-.7-2.9-1.2-.5-.2-1.2-.5-1.7-.5s-.5-.2-.7-.2-.5-.2-.7-.2c-.5-.2-1-.2-1.5-.5-.7-.2-1.2-.5-1.5-.5-.7-.2-1.2-.5-1.2-.5h-1.5c-1.5-.5-1-.5-3.6-1-1.7,0,0,.2-.5.2-.2-.2-1.7-.2-2.9-.5-.7,0-1.5,0-2.2-.2-.7,0-1.5-.2-1.9-.2h.5c.2,0,1,0,1.5.2.5,0,1.2.2,1.9.2h1.7s-.2,0-.7-.2c2.7.2,5.1.7,7.3,1.2,2.2.7,4.4,1.2,6.3,2.2,4.1,1.7,7.8,3.4,11.4,5.6.7.7,1.5,1,1.9,1.5.7.2,1.2.5,1.5.7-.2-.2-.7-.7-1.2-1-.5-.5-1-.7-1.7-1.2-.5-.5-1-.7-1.5-.7-.5-.2-.7-.2-.7-.2-.5-.7-1.2-1.2-1.9-1.7-1-.5-.7-1-1-1.2,1.7,1,3.9,1.5,1.7,0,2.2,1.2,1.7,1.2,1.2,1.2h-.5s.5.2,1.5,1h.7c-.5,0,.2.2,1,1,.7.7,1.9,1.2,2.7,1.7q-.2-.2-.5-.5c2.4,1.7,4.8,3.6,7.3,6.1,2.4,2.2,4.8,4.8,6.8,7.8,2.2,2.9,3.9,5.8,5.6,9,1.5,3.2,2.7,6.3,3.6,9.5,0,.5,0,1,.2,1.5,0,.5.2,1,.2,1.5s.2,1,.5,1.7c.2.5.2,1.2.5,1.7,0,.2.2.5.2,1s0,.5.2,1c0,.5.2,1.2.2,1.7v2.7c.2,1.5.2-1.9.5.7,0,1.5-.2,1.5-.2,1.5v1.2c-.5.5-.7.2-1.2-1.5,0-.5-.2-.7-.2-1.5s-.2-1.2-.5-1.9c0-.2-.2-.7-.2-1.2s-.2-.7-.2-1.2-.2-1-.2-1.5c-1-.5-1-1-1.2-1.5Z"/>
  </g>
  <path class="st1" d="M93.1,81"/>
  <path class="st3" d="M94.3,60.4c-.5-4.8-7-8.2-10.4-4.1-1,1.2-1.5,2.7-2.4,4.1l-.5,1-.5-1c-1.5-2.9-4.1-5.8-7.8-4.8-3.4,1-5.3,4.8-4.1,8,1.9,6.3,7.3,11.9,12.6,15.5.7.5,1,.2,1.7-.2,4.4-3.9,8.5-8.7,10.7-14.3,1-1.9.7-4.1.7-4.1ZM94.6,60.4c.2,1.5,0,3.2-.5,4.6-2.2,5.6-5.6,11.2-10.2,15.3-3.6,3.4-11.9-8.5-13.6-11.4s-3.2-6.8-1.5-10.2c1.5-3.4,6.1-5.1,9.2-2.9,1.5,1,2.7,2.4,3.4,4.1h-1c.7-1.5,1.5-2.9,2.7-4.4,3.6-4.1,10.9-.2,11.4,4.8h0Z"/>
</svg>