<?xml version="1.0" encoding="UTF-8"?>
<svg id="Layer_1" xmlns="http://www.w3.org/2000/svg" version="1.1" viewBox="0 0 816.6 150.2">
  <!-- Generator: Adobe Illustrator 29.5.0, SVG Export Plug-In . SVG Version: 2.1.0 Build 137)  -->
  <defs>
    <style>
      .st0, .st1 {
        fill: none;
      }

      .st1 {
        stroke: #f3f5f2;
        stroke-miterlimit: 10;
        stroke-width: 6px;
      }

      .st2 {
        fill: #b5ccba;
      }

      .st3 {
        fill: #f698b0;
      }

      .st4 {
        fill: #fff;
      }

      .st5 {
        fill: #fefefe;
      }

      .st6 {
        fill: #c4cec2;
      }
    </style>
  </defs>
  <g>
    <path class="st5" d="M60,95.8c.6-.6,1.2-.3,1.7-.3-.3.3-1.2,0-1.7.3Z"/>
    <path class="st5" d="M65.5,89.7q.3.3,0,0t0,0Z"/>
  </g>
  <g>
    <path class="st2" d="M71.9,12.8c-8.1-5.5-24.9-4-28,5.8-3.2,10.7,8.7,17.6,4,29.5-7.2,18.2,18.2,26.6,35.6,31.2-14.7,3.5-38.2-.6-44.8,12.1-6.6,13.6-1.2,32.1,13,41.3,11.6,7.5,24.6,2,30.4-2.3,11-8.1,11.6-30.4,11-34.4-.3-21.1,5.5-67.6-21.1-83.3ZM90.1,100.1c-1.2,22-6.6,32.1-22,34.7-3.8.6-9,1.4-13.3-2.6-17.3-15.3-26.6-46,7.5-47.7,3.5-.3,18.5-1.7,23.7-3.5.9-.3,1.2-.9,1.2-1.2-.3-1.4-1.2-2.9-3.5-3.2-2.3-.6-4.9-1.2-7.5-1.7-11.6-3.8-32.1-9-25.4-29.2,2.9-9.5-8.1-17.6-4.9-26.9,4.9-9,16.2-10.1,23.7-4.6,18.2,12.7,23.7,24.9,20.5,85.9Z"/>
    <path class="st3" d="M95.3,108.5c5.8,34.1-39,43.7-52.3,7.8-14.2-38.7,26.3-27.2,43.7-36.1-18.8-1.7-47.7-4.6-43.7-32.1.6-4-1.4-7.2-4-10.1C15.5,10.8,84.6-5.7,92.1,77.6c.3.6,2.3-2.9,2.6-2.3,1.7,1.4,2.9-4,5.2-1.7.9.6-.6.9-.9,1.7-1.4,3.2.9,3.5-2,5.2-6.4,5.2-2,20.8-1.7,28ZM92.7,84.2v-.6c.9-.3.3-1.4,0-1.7,0-.3,0-.6-.6-.6-1.7-3.8-5.2,2-11.3,3.2-22.3,3.8-47.7,6.9-34.7,32.1,2.3,4.3,5.5,12.7,13.9,18.5,11,7.5,34.1-3.2,32.7-18.8-.3-10.7-2.3-20.5,0-32.1ZM47,64c5.8,9.3,39.9,19.1,43.1,13.6-1.7-18.8-8.7-48-26.9-58.4-9-5.8-28.6-3.2-26.3,9.5.3,2.9,2,5.5,4,7.5,9,6.9,1.2,19.4,6.1,27.8Z"/>
    <path class="st6" d="M92.1,81.1c-.9,0-1.2-1.2-2-.9.9-.6,1.2-.3,2,.9Z"/>
    <path class="st6" d="M92.7,81.9c-.3,0-.6-.3-.6-.6.3,0,.6.3.6.6Z"/>
    <path class="st6" d="M92.7,84c0-.3,0-.6.3-.6q0,.3-.3.6Z"/>
  </g>
  <path class="st3" d="M100.5,73c-1.2-1.4-2.9-1.4-4.3,0s-1.4,1.4-2,2.3c-.6-1.4-2-2.6-3.5-2.6s-2.9,1.4-2.9,3.5.3,2,.9,2.9h0s3.5,5.5,4.6,5.8c.9.3,4-2.6,6.1-5.2,1.7-2.6,2-5.2,1.2-6.6Z"/>
  <g>
    <path class="st4" d="M7.7,96.7c-1.2-2-2.3-6.4-1.7-6.4q-.3,0-.6-.3c0-.3-.3-.6-.3-.9-.3-.3-.3-.9-.6-1.7.3,0-.3-2.6-.6-4.6,0,1.4.3,3.5,1.2,7.5.3.3.3.9.6,1.4.3.6.3,1.2.6,1.7s.3,1.2.6,2c.3.6.3,1.4.6,2,0,.3.3.6.3.9s.3.6.3.9c.3.6.6,1.2.9,1.7.6,1.2,1.2,2.3,1.4,2.9-.9-2-1.4-4.3-2.6-7.2Z"/>
    <path class="st4" d="M6,80.2l-.3-.6c0,.6,0,1.2.3,1.4l.3,1.4.3,1.4c0,.6.3,1.2.3,1.4,0-.3-.3-.9-.3-1.4s-.3-1.2-.3-1.7-.3-1.2-.3-2c0,.3,0,0,0,0Z"/>
    <path class="st6" d="M6.6,60c0,.6,1.2-2.6,1.2-2.3-.6,0,1.2-4.9,2-7.5v-1.2c-.3.3-.3.6-.6,1.2-.3.3-.3.9-.6,1.4-.3.6-.3,1.2-.6,1.7-.3.6-.3,1.2-.6,2-.9,2.6-1.4,5.8-1.7,8.7.3-1.4.6-2.9.9-4Z"/>
    <path class="st4" d="M8.3,55c0-.6,0-1.2.3-1.7-.6,1.4-1.4,4.9-.3,1.7Z"/>
    <path class="st4" d="M5.7,58.5c-1.2,4.3.9-2.6,0,1.7.3-1.4.6-3.2,0-1.7Z"/>
    <path class="st6" d="M13.2,41.2c-1.4,2.9-2.6,5.8-3.8,8.7l.9-1.7.3-.9.6-.9c.3-.9.6-1.7.9-2.6l1.2-2.6Z"/>
    <path class="st6" d="M14.4,41.2c-.6,1.2-1.7,2.9-.9,1.2.6-.9.9-1.4,1.2-2l.9-1.7c.3-.6.6-1.2,1.2-1.7.3-.3.3-.6.6-.9s.6-.6.6-.9c-.6.9-1.2,1.7-1.4,2.6.3,0,.9-1.4,1.7-2.6.3-.6.9-1.2,1.2-1.7.6-.6.6-.9.9-.9,2-3.5-2.3,2,.6-2.3-.9,1.2-1.4,2-2,2.9s-1.2,1.7-1.7,2.6c-.6.9-1.2,1.7-1.7,2.6-.6.9-1.2,1.7-1.7,2.6.9-.9.9-1.4,2-2.9-1.4,2.6-3.2,6.4-4.6,9.5.6-.9,1.2-1.7,1.4-2.9.3-.6.6-1.2.9-1.7s.6-1.2,1.2-1.7Z"/>
    <path class="st6" d="M23,28.7c2-2.3,5.8-5.8,6.1-6.6-1.4,1.2-2,1.7-2.6,2.3-.6.6-.9,1.2-1.2,1.7-.6.3-1.2,1.2-1.7,1.4-.6.6-.9.9-.6.3.3-.3-1.2,2,0,.9Z"/>
    <path class="st6" d="M32.3,20.4c.6-.6,1.2-1.2,1.7-1.7-.3.3-.9.6-1.2.9h-.3s-.3.6-.9.9c-.3.3-.6.6-.9.9-.3.3-.9.9-1.4,1.4.6-.6,1.2-.9,1.4-1.2.3-.3.6-.9,1.4-1.2Z"/>
    <path class="st6" d="M31.4,18c.6-.3.9-.6,1.2-.9s.9-.6,1.2-.9c.3-.3.9-.6,1.2-.9.3-.3.9-.6,1.4-.9-1.4.9-3.2,2.3-4.9,3.5-1.2.9-2.3,2-2.6,2.3l.3-.3-1.4,1.4c-.9.9-1.7,2-2.6,2.9.6-.6,1.4-1.4,2.3-2,.9-.9,1.7-1.4,2.3-2,1.4-1.4,2.6-2.3,1.7-2.3Z"/>
    <path class="st6" d="M27.9,20.9c.6-.6,1.2-1.2,1.7-1.7-.6.6-1.2,1.2-1.7,1.7Z"/>
    <path class="st6" d="M40.4,14.6c-1.4.9-2.9,1.7-4.3,2.6l1.2-.6,1.4-.9,1.7-1.2Z"/>
    <path class="st6" d="M34.6,16.6c.9-.6,1.2-.9,1.2-.9,0,0-.3,0-.6.3-.3,0-.6.3-.6.3,0,0,.3-.3,1.2-.9.3-.3-.9.6-2,1.4s-2.6,2-2.6,2.3c.3-.3,1.2-.9,1.7-1.4.9-.6,1.4-1.2,1.7-1.2Z"/>
    <path class="st6" d="M43.3,13.1c.6-.3,1.2-.9,1.7-1.2l1.7-.9-1.7.9c-.6.6-1.2.9-1.7,1.2Z"/>
    <path class="st6" d="M52.5,9.4l.6-.6c2-.3,4.3-.9,6.4-1.4,1.2-.3,2-.3,2.9-.6.6,0,.9,0,1.4-.3h1.2c-.3,0,0-.3,0-.3h-2c-.6.3-1.7.6-1.4.6-1.4.3-1.2,0-2.3,0-2.3.9-6.4,1.7-8.1,2.6.9-.3,1.2-.3,1.7-.6-.9.6-1.7.9-2.6.9-.6.3-1.2.3-1.7.6-.3.6-.9.6-1.7,1.2.6-.3,1.7-.9,2.6-1.2.6-.3,1.2-.3,1.4-.6.9.3,1.2,0,1.7-.3Z"/>
    <path class="st6" d="M51.6,8.2c-.6.3-1.2.3-1.7.6l-1.7.6c.6-.3,1.4-.9,2.3-1.2,1.2-.3,2-.6,2.3-.9-.3,0-3.8.9-2.3.3-.3.9-4.6,1.7-2.6,1.7-1.2.3-1.7.6-2,.9-.3,0-.6.3-.9.3s-.9,0-2.9,1.2l-1.2.9c1.2-.6,2-1.2,2.9-1.4s1.4-.6,2.3-.9c.6-.3,1.4-.6,2.3-.9.3-.3.9-.3,1.4-.6.6-.3,1.2-.6,1.7-.6Z"/>
    <path class="st6" d="M64.9,5h1.7-1.2c.6,0,.9,0,1.4-.3h4c1.7,0,3.2.3,4.3.3,1.4.3,2.6.3,3.8.6.6,0,1.2.3,1.7.3s1.2.3,1.7.3c.9,0,1.4,0,2,.3.6,0,1.4.3,2,.3l1.2.3c.3,0,.6.3,1.2.3l2,.6c.6.3,1.4.3,2,.6.6.3,1.4.3,2,.6,1.4.6,2.6.9,4,1.4,2.9.9-2.6-1.2-2.9-1.4.6,0,1.2.3,1.7.6.6.3,1.4.9,2,.9s-1.2-.9-2.9-1.4c-.9-.3-1.7-.6-2.9-1.2-.9-.3-1.7-.6-2.3-.9-1.2-.3-1.7-.3-2-.3h-.9c-.3-.3-.9-.3-1.7-.6-.6-.3-1.4-.3-1.7-.6-1.2,0-2.3-.3-3.2-.3s-1.7-.3-2.6-.3-1.7-.3-2.6-.3h-3.2c-1.4-.3,3.5,0,2,0h-2.6.3c-.9,0-2,.3-2.9.3s-2.3.3-3.5.3c-1.7-.3-4-.3-5.2,0h1.7c.3,0,0,.3-.9.3h-1.7c-1.4.3-2.9.9-4.3,1.4.9-.3,1.7-.6,2.3-.6.9-.3,1.7-.3,2.3-.3.9,0,1.4-.3,1.7-.3,1.2-.6,1.4-.6,1.7-.9Z"/>
    <path class="st6" d="M60,5.3q-2.6.6-2.3.6l-.3.3q-.3,0-.9.3c-.3,0-.9.3-1.7.3l1.4-.3c.6,0,.9-.3,1.4-.3.9-.3,2-.6,2.9-.6,0-.3-.3-.3-.6-.3Z"/>
    <path class="st4" d="M84.9,5.6l2.6.6c-.6-.3-2-.6-2.9-.6s-1.2,0,.3,0Z"/>
    <path class="st4" d="M94.1,7.6h-1.4c.9.3,1.7.3,2.6.6-.3-.3-.6-.3-1.2-.6Z"/>
    <path class="st6" d="M102.2,11.1q.9.3,0,0c-.3-.6-1.2-1.2-2.3-1.4.6.3.9.3,1.2.6s.6.6,1.2.9c0,0,.3.3,0,0Z"/>
    <path class="st4" d="M113.8,18.9c-1.7-1.2-.9-.6,0,0,.6.9,1.7,1.7.3.9.3,0,.9.3,1.2.6v-.3s-.3-.3-.6-.3c0-.3-.3-.6-.9-.9Z"/>
    <path class="st6" d="M123.3,29c-1.2-1.2-1.4-1.4-1.4-1.7.9.9,1.4,1.4,1.4,1.7Z"/>
    <path class="st6" d="M77.1,5.9h-1.4,1.4Z"/>
    <path class="st6" d="M78,5.9h-.9.9Z"/>
    <path class="st6" d="M108,16h0q-.3-.3,0,0h0Z"/>
    <path class="st6" d="M6,67.8v2-2h0Z"/>
    <path class="st6" d="M5.4,69.8c0-1.7.3-2.6.6-4,.3-.6.3-1.2.6-2,.3-.9.3-2,.6-3.5-.3,1.2-.3,2.3-.6,3.5,0,1.2-.3,2.3-.3,3.8-.9,3.5-.3-2.3-.9,2.3Z"/>
    <path class="st6" d="M23.9,26.1s0-.3,0,0c.3-.6.3-.3,0,0Z"/>
    <path class="st4" d="M115.8,128.5h0c.9-.9,1.7-1.4,2.6-2-.9.9-2,1.4-2.6,2Z"/>
    <path class="st4" d="M115.2,128.8c-1.4.9-2.9,2-4.6,2.9,9-5.8,16.5-13.6,22-22.5,0,.3-.3.6-.3.9,0,0,0,.3-.6.9-.3.6-.9,1.4-1.7,2.3-.3.6-.9,1.2-1.2,1.7-.3.6-.9,1.2-1.4,1.7-.3.3-.6.6-.9.9l-.9.9c-.6.6-1.2,1.2-1.7,1.7-2.3,2.3-4.6,4.6-6.4,6.1-1.4,1.7-2.6,2.6-2.3,2.6Z"/>
    <path class="st4" d="M114.1,129.6c-.6.6-1.2,1.2-1.7,1.4-.6.3-1.2.6-1.7,1.2-.3.3-.6.3-.9.6-.3.3-.6.3-.9.6-.6.3-1.4.9-2.3,1.4,1.2-.6,2-1.4,2.9-2s1.7-1.2,2.9-1.7c.6-.6,1.2-.9,1.7-1.4Z"/>
    <path class="st0" d="M105.4,136c-.3.3-.9.3-1.2.6s-.9.3-1.2.6c-.9.3-1.4.9-2,.9.3-.3.9-.6,1.7-1.2.3-.3.9-.3,1.4-.6.3.3.9,0,1.2-.3Z"/>
    <path class="st6" d="M101.9,139.5c-.3,0-.6.3-.9.3.3,0,.6-.3.9-.3h0Z"/>
    <path class="st6" d="M101.7,139.5h0q.6-.3,0,0Z"/>
    <path class="st6" d="M101.1,139.7c-.6.3-1.4.6-1.7.9l.6-.3c-.9.6-2.6,1.2-3.2,1.2,2-.6,2-.9,2-1.2l-3.2,1.2c.3-.6,2.6-.6,5.5-1.7Z"/>
    <path class="st0" d="M91,143.2c1.2-.3,2-.9,3.2-1.2.6,0,0,.3-.9.6-.6,0-1.4.6-2.3.6Z"/>
    <path class="st6" d="M86,143.8c.3,0,1.4-.3,2-.6.3,0,.6,0,.6-.3h-.6c.6-.3,1.2-.3,1.7-.6-2,.9,0,1.2-3.8,1.4Z"/>
    <path class="st6" d="M89.8,142.9c.3,0,.6,0,.9-.3-.3,0-.6,0-.9.3Z"/>
    <path class="st0" d="M120.2,125.6c-.3.3-.3,0,0,0h0Z"/>
    <path class="st6" d="M79.4,144.4h-1.2s.6,0,1.2,0h0Z"/>
    <path class="st6" d="M141.6,74.1c0,1.2,0,2-.3,3.2,0,1.2-.3,2-.3,3.2s-.3,2.3-.3,3.8-.3,1.4-.3,2-.3,1.4-.3,2.3c.6,0-.3,2.3,0,2.9.6-3.2-.6,2.9-2.6,8.7-.3.9-.6,1.4-.9,2s-.6,1.4-.9,2c-.6,1.2-1.2,2.6-1.7,3.5-.9,1.7-1.4,2.6-.6,1.4l.6-1.4-.9,1.4c-1.7,2.6-4.3,5.8-5.5,7.5,0,0,.3-.3.6-.9l.9-.9c.3-.3.6-.9.9-1.4,1.4-2,3.2-4.6,4.6-7.5.3-.9.9-1.4,1.2-2,.3-.6.6-1.4.9-2,.3-.3.3-.6.6-1.2,0-.3.3-.6.3-.9.3-.6.6-1.2.6-1.7.9-2.3,1.2-3.8,1.2-3.5.3-.3,0,0,0,.9-.3.9-.6,2-1.2,3.5-1.2,3.2-2.9,7.2-5.5,11.3-2.3,4-5.5,7.8-8.1,10.7-.6.6-1.2,1.4-1.7,1.7-.6.6-1.2,1.2-1.4,1.4-.9.9-1.4,1.2-1.4,1.4h-.6c-.3.3-.9.9-1.2,1.2s-.9.9-1.2,1.2c-.9.6-1.4,1.4-2.3,2-.9.6-1.4,1.2-2,1.7-.9.6-1.4,1.2-2.3,1.7l-.9.3c.6-.3,1.2-.6,1.7-.9.6-.3.9-.6,1.2-.9.9-.6,1.4-1.2,2.6-2-1.2.9-2,1.4-2.6,1.7-.9.6-1.4.9-2,1.2-.6.3-1.2.6-1.7,1.2-.6.3-1.4.9-2.3,1.2.3.3.9-.3,1.2-.3l-.3.3c-.3.3-.9.6-2,1.2-.6.3-.3,0-.3-.3s-.3,0-2.3.9c-4.9,2-3.8,2.3-8.4,3.8l.9-.3.9-.3,1.4-.6c-1.7.6-4.9,1.7-6.6,1.7.3,0,.6,0,.9-.3.3,0,.6-.3,1.2-.3.6-.3,1.4-.6,2.3-.9,1.4-.6,2.6-1.2,2.3-1.4-1.7.9-6.1,1.7-7.8,2.3l.9-.6c-.9,0-1.7.3-2.6.6-.9.3-1.7.3-2.9.6-1.2.3-.9.3-.3.3s1.2,0,.6.3c-.3,0-1.4,0-2.9.3h-2c-.6,0-1.2,0-1.4.3.3,0,.9.3,1.4.3s1.4,0,2-.3c.9,0,1.4-.3,2.3-.3s1.7-.3,2.3-.3l-2,.3-2,.3c-1.2.6.3.3,2.3,0,1.7-.3,3.8-.9,3.2-.3-1.4.6-3.2.9-4.9.9s-3.2,0-4.6.6c.9,0,3.2,0,4.9-.3,1.7,0,3.2-.3,2.6-.3-1.2,0-2,.3-3.2.6-.6,0-1.2.3-1.7.3s-1.2.3-2,.3h-3.8c-1.4.3-.3.3.6.3-2.9,0-6.4-.3-10.4-.6-4-.6-8.1-1.4-11.9-2.6-.6,0-.9-.3-1.2-.3s-.6-.3-.6-.3h-.3s.6.3-.6.3c-1.2-.6-2.6-1.2-4-1.7-.9-.3-1.4-.6-2.3-.9-.9-.3-1.4-.6-2-.9s-2-.6-1.4-.3c2,.9,4,1.7,6.1,2.6-.3,0,.3.9,2.6,1.4-.3-.3,0-.3.9,0,.3,0,.9.3,1.4.6.6.3,1.2.3,1.7.6,2.3.9,5.2,1.4,5.5,1.2l-.9.3c.6.3,1.4.3,2,.3l2,.3c1.4,0,2.9.3,4,.3h-.3,11.6c-.6.3-2.9.3-4.3.3s-2.3,0,0,.3c-3.5.3-9.5-.3-15.6-1.7l1.2.6c-3.2-.6-6.9-1.4-10.7-2.9-3.8-1.4-7.2-3.2-10.4-4.9.6.3,1.4.6,2,.9-.6-.3-1.2-.6-1.7-1.2-.6-.3-1.2-.9-1.7-1.2-.6-.3-1.2-.9-1.7-1.2-.6-.3-1.2-.6-1.7-.9.6.6,1.2.6,1.2.9l.3.3s-.6-.3-.9-.3c-.9-.6-1.7-1.2-2.9-2-.9-.9-2-1.4-3.2-2.6-.6-.6-1.2-.9-1.7-1.4,0-.3-.3-.6-.6-.6l-.9-.9-1.4-1.4c0-.6-.6-1.2-1.2-1.7,0,0,.3.3,0,0s-.6-.6-1.2-1.2l-1.2-1.2c-.6-.9-1.4-1.4-2-2.3-1.7-2.3-2-3.2-2.9-4.6-.6-.9-2-2.9-1.7-2,.3.6.6.9.9,1.2-2-2.3-1.2-1.7-3.2-4.9,1.7,2.3,0-.9.6-.9-2-3.8-.6,0-1.2-.6-.3-.6-.6-1.2-.9-1.7-.3-.6-.3-.9-.6-1.4-.3-.9-.6-1.4-.9-2.3s-.6-1.4-.9-2.3-.6-1.7-.9-3.2c-.3,0,0,.9.3,1.7,0,.3.3.6.3.9s.3.6.3.6c0,.3.3.9.3.9-.6-1.4-1.2-3.2-1.2-3.5.3,1.2.6,2,.9,3.2-.6-1.4-.9-2.6-1.2-4-.3-.6-.3-1.4-.6-2,.3,0,0-.9-.3-1.4-.6-2.9-1.2-5.5-1.7-8.7v.6l-.3-2c0-.6,0-1.2-.3-2l.6,1.4c0-1.2-.3-2-.3-3.2s0-1.7-.3-2.3v.9c0-.9,0-1.7-.3-2.6,0,.9.3,1.7.3,2.6v-9.3c0-1.2.3-2.6.3-3.8.3-.3.3.3,0,.9v6.9c0,1.2,0,1.7.3,2,0-.9,0-2,.3-3.2,0-1.2.3-2,0-2.6-.3.3-.3,1.4-.3,2.9,0-1.2,0-2.6.3-3.8,0-.6.3-1.4.3-2v-1.2c0-.3,0-.6.3-.9.3-1.4.6-2.6.6-3.8.3-1.2.3-2,.6-2.9-.3.6-.3,1.2-.6,1.7l-.6,1.7c.3-1.2.6-2,.6-2.6.6-1.4.9-2,1.2-2.6.6-1.2.9-2.3.9-2.9l-.3,1.7v1.7c0-.6.3-1.2.3-1.4.3-.6.3-1.2.6-1.7.3-.6.3-1.2.6-1.7,0-.9.3-1.4.6-2s.3-1.2.6-1.7c.3-.6.6-1.2.6-1.4.3-.6.3-1.2.6-1.4.3-.6.6-.9.9-1.4,0,0-.3.3-.6.6,0,.3-.3.6-.3.9s-.3.6-.3.9c-.6,1.2-1.2,2.6-.9,2.3.3-.6.3-1.2.6-1.7s.6-1.2.9-1.7c.3-.3.3-.9.6-.9-.3-.3,0-.6,0-.9.3-.3.3-.6.6-1.2s.9-1.4,2-3.2h0c.3-.6.9-1.2,1.4-2s1.2-1.4,1.4-2.3c.3-.6.9-1.2,1.2-1.4.3-.3.3,0,0,.6-.6.6-.9,1.2-1.2,1.4h.3c1.4-2.3,3.5-4.6,5.2-6.6-.6.6,2-2.3,1.4-1.4.6-.9,1.4-1.7,2-2.3.9-.3-.3.9-1.2,2-1.2,1.2-2.3,2.6-2.3,2.9,0,0,.3-.3.9-.6.3-.3.6-.9.9-.9-2.3,2.9-4,3.8-6.4,6.9l-.9,1.7-.3-.3c-.3.6-.9,1.4-.9,1.7-.3.6-.3.9-.6,1.2-.6.6-1.2,1.4-1.7,2.3-.6.9-.9,1.7-1.4,2.6-.3.6-.6.9-.6,1.4s-.3,1.2-.6,1.7c-.3.6-.6,1.2-.6,1.7l-.9,1.7c.9-2.3.3-1.4,0-.3-.6,1.2-1.2,2.6-1.2,2.3-.3.6-.6,1.4-.6,2.3-.3.9-.6,2-.6,3.2-.3,1.2-.3,2-.6,2.9-.3.9-.3,1.7-.6,2.3-.6,1.4.3-3.2-.3.3,0,.6-.3,1.2-.3,1.4v1.2q0,.6.3-.3c-.6,4.9-.9,11-.3,16.8l-.3-1.4v2.6c0,.9.3,1.7.3,2.3.3,1.4.9,2.6,1.2,3.5,0,.6,0,.9,0,.3.3,1.2.3,2,.6,2.9.3.9.6,1.4.9,2.3s.6,1.7,1.2,2.9c.3,1.2.9,2.3,1.7,4,0-.3-.3-1.2-.6-2.3-.3-.6-.3-1.2-.6-1.7-.3-.6-.6-1.2-.6-1.7l.6.6c-2-5.8-3.2-12.7-3.8-17.9l.6,2.3v-2.3c0-.6,0-.9-.3-1.4,0-.3,0-.9-.3-1.2v-.9c0-.3,0-.9.3-1.2,0-2.9-.3,2.3-.3,0-.6-1.2-.3-.9,0-1.2,0,0,.3,0,.3-.3s0-.9.3-1.7c-.3,6.6.3,13.9,2,20.8.9,3.5,2,6.9,3.5,10.1s3.2,6.4,4.9,9.5c.3.3-.3-.6-.6-1.2.3.6,1.2,1.4,1.7,2.6.9,1.2,2,2.9,3.2,4.6,2.6,3.5,6.4,7.5,10.4,10.7,4,3.5,8.4,6.1,11.9,7.8.6.3.9.3,1.2.6.3.3.9.3,1.2.6.9.3,1.4.6,2,.9,1.2.3,1.7.6,2,.6.6.3-1.4-.3,1.2.9.3,0,1.2.3.3-.3,3.5,1.4,7.8,2.6,12.1,3.5,4.6.6,9.3.9,13.9.9,0,0,.3-.3.9-.3s.9-.3.9-.3h2.6c.9,0,2-.3,2.9-.3,1.2-.3,2-.3,2.9-.6.9-.3,1.7-.3,2.6-.6h-.9c2.9-.6,5.8-1.4,8.7-2.6h-.6c-.3,0-.9.3-1.2.3.6-.3.9-.3,1.2-.3s.6-.3.9-.3h.6l1.7-.9,1.7-1.2c.3,0,.6-.3,1.2-.3s.6-.3,1.2-.6c.6-.3,1.4-.6,2-.9,1.4-.9,2.9-1.4,4-2.3,1.4-.9,2.6-1.7,4-2.9s2.6-2,3.8-3.2c5.2-4.6,9.5-10.1,13.3-15.9.3-.9.9-1.7,1.2-2.9.3-.6.6-1.2.9-1.7.3-.6.6-1.2.9-2-.3.6-.6.9-.9,1.4q.6-1.7.9-1.7s0,.3.6-1.2c.6-2-.3-.9-1.2,1.7-.9,1.4-.6.6,0-.6,2.3-4.9,4-9.8,5.2-14.5,1.4-4.6,2-9.3,2.6-13.6Z"/>
    <path class="st6" d="M139,62.3c0-.6.3.6.6,1.4.3.9.3,1.7.3.3-.3-4.6-1.7-10.4-4-15.9-1.2-2.9-2.6-5.5-4-8.1-1.4-2.6-3.2-5.2-4.6-7.2-.3-.6-.6-1.2-.9-1.4s-.6-.9-.9-1.2c-.6-.6-1.2-1.4-2-2.3v.3c-.6-.6-1.2-1.2-1.7-1.7-.6-.6-1.4-1.2-2-2-.9-.6-1.4-1.2-2-1.7s-1.4-1.2-2-1.7-1.4-.6,0,.3c-.9-.6-1.7-1.2-2.6-1.7-.3-.3-.9-.6-1.2-.9-.3-.3-.6-.6-1.2-.9-.6-.9-1.2-1.2-2-1.7-.6-.3-1.2-.9-1.7-.9,1.7,1.2-2-.9.3.6-4-2.3-3.2-2.9-6.6-4.3-.3,0-.6,0,.3.3-.9-.6-2-.9-3.5-1.4-.6-.3-1.4-.6-2-.6s-.6-.3-.9-.3-.6-.3-.9-.3c-.6-.3-1.2-.3-1.7-.6-.9-.3-1.4-.6-1.7-.6-.9-.3-1.4-.6-1.4-.6h-1.7c-1.7-.6-1.2-.6-4.3-1.2-2,0,0,.3-.6.3-.3-.3-2-.3-3.5-.6-.9,0-1.7,0-2.6-.3-.9,0-1.7-.3-2.3-.3h.6c.3,0,1.2,0,1.7.3.6,0,1.4.3,2.3.3h2s-.3,0-.9-.3c3.2.3,6.1.9,8.7,1.4,2.6.9,5.2,1.4,7.5,2.6,4.9,2,9.3,4,13.6,6.6.9.9,1.7,1.2,2.3,1.7.9.3,1.4.6,1.7.9-.3-.3-.9-.9-1.4-1.2-.6-.6-1.2-.9-2-1.4-.6-.6-1.2-.9-1.7-.9-.6-.3-.9-.3-.9-.3-.6-.9-1.4-1.4-2.3-2-1.2-.6-.9-1.2-1.2-1.4,2,1.2,4.6,1.7,2,0,2.6,1.4,2,1.4,1.4,1.4h-.6s.6.3,1.7,1.2h.9c-.6,0,.3.3,1.2,1.2.9.9,2.3,1.4,3.2,2q-.3-.3-.6-.6c2.9,2,5.8,4.3,8.7,7.2,2.9,2.6,5.8,5.8,8.1,9.3,2.6,3.5,4.6,6.9,6.6,10.7,1.7,3.8,3.2,7.5,4.3,11.3,0,.6,0,1.2.3,1.7,0,.6.3,1.2.3,1.7s.3,1.2.6,2c.3.6.3,1.4.6,2,0,.3.3.6.3,1.2s0,.6.3,1.2c0,.6.3,1.4.3,2v3.2c.3,1.7.3-2.3.6.9,0,1.7-.3,1.7-.3,1.7v1.4c-.6.6-.9.3-1.4-1.7,0-.6-.3-.9-.3-1.7s-.3-1.4-.6-2.3c0-.3-.3-.9-.3-1.4s-.3-.9-.3-1.4-.3-1.2-.3-1.7c-1.2-.6-1.2-1.2-1.4-1.7Z"/>
  </g>
  <path class="st1" d="M108,95.2"/>
  <path class="st2" d="M109.5,70.7c-.6-5.8-8.4-9.8-12.4-4.9-1.2,1.4-1.7,3.2-2.9,4.9l-.6,1.2-.6-1.2c-1.7-3.5-4.9-6.9-9.3-5.8-4,1.2-6.4,5.8-4.9,9.5,2.3,7.5,8.7,14.2,15,18.5.9.6,1.2.3,2-.3,5.2-4.6,10.1-10.4,12.7-17.1,1.2-2.3.9-4.9.9-4.9ZM109.8,70.7c.3,1.7,0,3.8-.6,5.5-2.6,6.6-6.6,13.3-12.1,18.2-4.3,4-14.2-10.1-16.2-13.6-2-3.5-3.8-8.1-1.7-12.1,1.7-4,7.2-6.1,11-3.5,1.7,1.2,3.2,2.9,4,4.9h-1.2c.9-1.7,1.7-3.5,3.2-5.2,4.3-4.9,13-.3,13.6,5.8h0Z"/>
  <g>
    <path class="st3" d="M199.7,109.3c.6,1.1-5.9,3.4-7.1-1.7-2.1-8.5-3.8-46.1-3.9-47.8,0-1.7-.8-1.3-1.1,0-4.1,20.8-11.2,47.6-19.4,47.6s-8.5-4-8.5-11.3c-.5-35.6,0-45.7,0-58s6.9-2.3,6.8-.4c-.6,11.1-1.5,21.1-.9,58.1,0,6,1.5,6.9,3.2,6.9,5.1,0,13-26.9,16.9-51.3.8-5.3,1.7-6.5,3.6-6.5,6.2,0,4.6,1.4,4.9,10.2.8,22.6,3.5,49.4,5.7,53.9Z"/>
    <path class="st3" d="M228.3,95.1c0-8.5,2.6-20.3,1-20.3s-6.6,7.8-13.9,25.9c-3,6.1-3.4,6.8-5.3,7-3.6,0-4.2-2-4-10.5.2-7.8.8-13.1.8-27s6.6-1.8,6.5.2c-.7,11.4-1.3,16.1-1.3,24.8s.6,3.2,1.1,1.5c.8-2.3,9.5-26.9,17-26.9s3.9,17.2,3.9,26.9,1,10,3.4,10c3.8,0,9.1-10,15.9-28.7.8-2,2.9,1.1,2.3,3.3-6.3,18.6-12.7,29.2-19,29.2s-8.4-6.5-8.4-15.3Z"/>
    <path class="st3" d="M304.6,96.6c0-4.2.2-6.1.3-6.9.3-2.5-.4-1.8-.8-.6-2,5.1-5.9,18.3-13.4,18.3s-8.6-.5-8.9-14.2c-.4-13.7,8.3-22.9,16.3-22.9s4.4,1.2,4.4,2.7-1.9,2.8-2.3,1.8c-.2-.8-1-1.5-2-1.5-5.8,0-10,9.3-10,19.3s1.4,10.9,3.2,10.9c3.8,0,9.4-11.6,13.1-25.4.5-1.6,1.1-6.1,1.1-6.9,0-1.2,6.2-1.8,5.8.3-.3,1.5-2.1,21.1-2.1,25.2,0,6.6,1.1,10.6,2.9,10.6,4.2,0,13.7-16.4,17.5-29.8.8-2.7,2.8,1.4,2.3,3.2-2.7,8.3-11.6,29.6-20.2,29.6s-7.3-4.7-7.3-13.8Z"/>
    <path class="st3" d="M364.7,91c.8-13.3-.5-14.9-1.6-14.9-2.4,0-7.5,13-8.7,27-.2,2.3-6.6,2.6-6.7,0-.6-13.2,0-26.9-2.2-26.9s-7.4,19.1-9,24.3c-2.1,6.7-4.1,7-5.1,7-3,0-3.7-2-3.5-10.5.2-7.8.8-15.9.8-29.9s6.9-1.8,6.7.2c-.7,11.4-1.8,18-2.1,27.6,0,2.9.3,3,1.1.2,4.1-13.9,7.1-22.8,11.5-22.8,6.2,0,7.1,7.4,7.1,18.2s.2,1.4.8-1.6c2.3-9.9,5.2-16.9,10.2-16.9s7.6,2.5,6.1,18.6c-1.1,11.8,1.2,19.1,7.3,19.1s-.2,3.5-3.6,3.5c-9.2,0-10-11.1-9.3-22.3Z"/>
    <path class="st3" d="M421.6,78.6c-.9,2-5.4,9.4-13.9,10.8-.8,9.5-6.3,20.6-13.4,20.6s-12.3-6.5-12.3-17,3.7-19.1,5.8-21.7c.7-.8,3.1,0,4.2,1.1,1.4-1.6,3.5-2.3,5.6-2.3,3.6,0,9.9,3.9,10.1,16.1,5.2-1.3,9.5-5.4,11.3-10,.8-1.7,3.1.9,2.5,2.3ZM403.6,89.7c-8.5-.5-12.2-5.4-12.9-10.8-1,3.1-1.9,7.7-1.9,13.9s2.2,13.6,5.4,13.6,8.6-8.4,9.3-16.7ZM395.1,76.9c0,5.4,4.6,9.3,8.6,9.8-.2-10.1-3.6-13-6.1-13s-2.5,1.8-2.5,3.2Z"/>
    <path class="st3" d="M428.4,100.2c0-7.9,2.3-14.7,2.4-15.5,0-.8.4-1.8-1.7-2.1-3-.4-5.5,0-7.8-1.2-2.3-1.1-3.3-3.3-2.4-6.4,1.2-4.5,3.3-10.6,7.2-10.6s3,3,2.3,5.2c-.8,2.8-3.4,5.5-3.8,6.7-.5,1.1,1.3.8,3,1,2,.3,10.6.3,10,3.9,0,0-3.4,11.5-3.4,18.5s1.1,7.7,2.9,7.7c4.2,0,15.7-16.4,19.3-29.8.4-2.8,2.7,1.4,2.3,3.2-2.6,8.3-13.5,29.6-22.1,29.6s-8.3-4.1-8.3-10.1Z"/>
    <path class="st3" d="M484.4,94.6c-.5-9.1,3.1-22.7,12.9-23.2,6.4-.3,8,4.4,8.1,6.3.3,4.8-4.5,3.5-3.9,2.5.8-1.1,0-5.9-3.8-5.7-4.6.2-7.2,11.5-6.9,19.8.4,8.8,3.8,13.1,6.7,13.1,7.5,0,17.5-19.2,20.6-29.8.8-2.5,2.7,1.5,2.3,3.2-2.7,8.4-12.6,29.6-22.8,29.7-3.9,0-12.5-1.4-13.1-15.9Z"/>
    <path class="st3" d="M554.8,78.6c-.9,2-5.4,9.4-13.9,10.8-.8,9.5-6.3,20.6-13.4,20.6s-12.3-6.5-12.3-17,3.7-19.1,5.8-21.7c.7-.8,3.1,0,4.2,1.1,1.4-1.6,3.5-2.3,5.6-2.3,3.6,0,9.9,3.9,10.1,16.1,5.2-1.3,9.5-5.4,11.3-10,.8-1.7,3.1.9,2.5,2.3ZM536.8,89.7c-8.5-.5-12.2-5.4-12.9-10.8-1,3.1-1.9,7.7-1.9,13.9s2.2,13.6,5.4,13.6,8.6-8.4,9.3-16.7ZM528.2,76.9c0,5.4,4.6,9.3,8.6,9.8-.2-10.1-3.6-13-6.1-13s-2.5,1.8-2.5,3.2Z"/>
    <path class="st3" d="M572.7,95.1c0-8.5,2.6-20.3,1-20.3s-6.6,7.8-13.9,25.9c-3,6.1-3.4,6.8-5.3,7-3.6,0-4.2-2-4-10.5.2-7.8.8-13.1.8-27s6.6-1.8,6.5.2c-.7,11.4-1.3,16.1-1.3,24.8s.6,3.2,1.1,1.5c.8-2.3,9.5-26.9,17-26.9s3.9,17.2,3.9,26.9,1,10,3.4,10c3.8,0,9.1-10,15.9-28.7.8-2,2.9,1.1,2.3,3.3-6.3,18.6-12.7,29.2-19,29.2s-8.4-6.5-8.4-15.3Z"/>
    <path class="st3" d="M614.5,69.4c-2,.9-13.2,4.2-13.2,9s17.8,13.2,17.8,22.3-5.4,6.9-10.6,6.9c-8.5,0-13.1-4.5-13.1-7.2s4.2-3.6,4.2-2.3c0,2.3,3.9,6.8,8.9,6.8s5.6-1.1,5.6-3.9c0-5.2-17.9-14.4-17.9-21.8s14.5-13.1,17.9-14.8c1-.2,2.3,4,.4,5Z"/>
    <path class="st3" d="M623.3,94.6c-.5-9.1,3.1-22.7,12.9-23.2,6.4-.3,8,4.4,8.1,6.3.3,4.8-4.5,3.5-3.9,2.5.8-1.1,0-5.9-3.8-5.7-4.6.2-7.2,11.5-6.9,19.8.4,8.8,3.8,13.1,6.7,13.1,7.5,0,17.5-19.2,20.6-29.8.8-2.5,2.7,1.5,2.3,3.2-2.7,8.4-12.6,29.6-22.8,29.7-3.9,0-12.5-1.4-13.1-15.9Z"/>
    <path class="st3" d="M655,96.6c0-5.9.8-16.9,2.3-29.2,0-1.2,6.1-1.8,5.8.2-1.3,11-3.2,21.9-3.2,29.2s1.2,10.6,3.5,10.6c4.3,0,14.4-16.4,18-29.5.8-2.5,2.8,1.6,2.3,3.3-2.8,8.3-12.2,29.2-20.8,29.2s-7.9-5.1-7.9-13.8ZM658.4,45.9c0-2.8,2.1-3.9,3.3-3.9,2.3,0,4.1,2,4.1,4.3s-2.9,4.8-4.6,4.8-2.8-2.3-2.8-5.2Z"/>
    <path class="st3" d="M712.3,80.8c-2.7,8.3-12.4,28.9-22.6,28.9s-14.6-3.3-13.3-19.1c1.1-13.2,8-22.2,15.1-22.2s7.1,3.5,7.1,7.1c0,9.4-7.8,17.1-15.9,23.1,1.4,5.8,5.1,7.8,7.2,7.8,7.5,0,16.8-17.9,20.1-28.9.7-2.3,2.8,1.5,2.3,3.2ZM682.1,94.8c4.8-3.7,10.8-9.5,11.6-18.2.2-2,0-5.1-2.2-5.1-4,0-8.6,10.4-9.4,19.5,0,1.4,0,2.6,0,3.8Z"/>
    <path class="st3" d="M730.2,95.1c0-8.5,2.6-20.3,1-20.3s-6.6,7.8-13.9,25.9c-3,6.1-3.4,6.8-5.3,7-3.6,0-4.2-2-4-10.5.2-7.8.8-13.1.8-27s6.6-1.8,6.5.2c-.7,11.4-1.3,16.1-1.3,24.8s.6,3.2,1.1,1.5c.8-2.3,9.5-26.9,17-26.9s3.9,17.2,3.9,26.9,1,10,3.4,10c3.8,0,9.1-10,15.9-28.7.8-2,2.9,1.1,2.3,3.3-6.3,18.6-12.7,29.2-19,29.2s-8.4-6.5-8.4-15.3Z"/>
    <path class="st3" d="M780.4,80.8c-8.2,18.3-15.1,30.9-20.5,30.9s-7-3.6-7.1-10.7c0-13.2.4-23.8.9-32.5-7-.4-12.6-1.7-12.6-5s2-2.9,2.2-2.6c.8,1.3,4.8,3.1,10.7,3.9.5-6.1,1-11.5,1.5-16.4,0-2.8,6.5-1.7,6.2.3l-2,16.5c5.6,0,10-.8,12.7-2.1,1-.5,1.6,2.2.5,2.5-4.6,1.5-9.3,2.7-13.5,3-1.5,14.7-1.8,24.3-1.2,34.6,0,2.8,1.1,4.8,1.9,4.8,2.8,0,12.5-16.6,18.5-30.4.9-2.1,2.8,1.7,1.9,3.2Z"/>
    <path class="st3" d="M809.7,80.8c-2.7,8.3-12.4,28.9-22.6,28.9s-14.6-3.3-13.3-19.1c1.1-13.2,8-22.2,15.1-22.2s7.1,3.5,7.1,7.1c0,9.4-7.8,17.1-15.9,23.1,1.4,5.8,5.1,7.8,7.2,7.8,7.5,0,16.8-17.9,20.1-28.9.7-2.3,2.8,1.5,2.3,3.2ZM779.6,94.8c4.8-3.7,10.8-9.5,11.6-18.2.2-2,0-5.1-2.2-5.1-4,0-8.6,10.4-9.4,19.5,0,1.4,0,2.6,0,3.8Z"/>
  </g>
</svg>