<?xml version="1.0" encoding="UTF-8"?>
<svg id="Layer_1" xmlns="http://www.w3.org/2000/svg" xmlns:xlink="http://www.w3.org/1999/xlink" version="1.1" viewBox="0 0 673.1 225">
  <!-- Generator: Adobe Illustrator 29.5.1, SVG Export Plug-In . SVG Version: 2.1.0 Build 141)  -->
  <defs>
    <style>
      .st0 {
        fill: none;
        stroke: #000;
        stroke-miterlimit: 10;
      }
    </style>
  </defs>
  <image width="225" height="225" transform="translate(448.1)" xlink:href="images-amor.png"/>
  <path class="st0" d="M191.9,176.2s40.9-67.7,63.1-20.4c1.7,3.6-2,21.2-14.4,6.4-13.3-15.9,35.6-19.7,70.5-32.5s22.4-36.1,38.5-61.4c15.4-24.3-38.1-43.3-39.9-7.5-.8,15,8.3,8,1.8-4.5-6.9-13.3-53.2-13.6-40.6,17.8,3,7.5,13.4,12.1,36.2,20.7,22,8.3,25.9,19.7,27.7,29.1s2.3,18.8,13.2,21.8,15-20.4,5.8-16.7c-9.2,3.6,3.2,16.1,7.4,18.9,13.7,9.3,49.3,6.7,53.7-38.8,4.3-43.6,48.1-17.6,48.1-17.6"/>
</svg>